<?xml version="1.0" standalone="no"?>
<!DOCTYPE svg PUBLIC "-//W3C//DTD SVG 1.1//EN" "http://www.w3.org/Graphics/SVG/1.1/DTD/svg11.dtd" >
<svg xmlns="http://www.w3.org/2000/svg">
<metadata>Generated by IcoMoon</metadata>
<defs>
<font id="icomoon" horiz-adv-x="1024">
<font-face units-per-em="1024" ascent="960" descent="-64" />
<missing-glyph horiz-adv-x="1024" />
<glyph unicode="&#x20;" horiz-adv-x="512" d="" />
<glyph unicode="&#xe900;" glyph-name="Add_Circle" d="M512 960c-282.336 0-512-229.664-512-512s229.664-512 512-512 512 229.696 512 512-229.664 512-512 512zM512 15.328c-238.56 0-432.672 194.080-432.672 432.672s194.144 432.672 432.672 432.672 432.672-194.080 432.672-432.672-194.080-432.672-432.672-432.672zM710.304 491.232h-158.624v158.624c0 21.888-17.728 39.648-39.648 39.648s-39.648-17.76-39.648-39.648v-158.624h-158.624c-21.92 0-39.648-17.76-39.648-39.648s17.728-39.648 39.648-39.648h158.624v-158.624c0-21.888 17.728-39.648 39.648-39.648s39.648 17.76 39.648 39.648v158.624h158.624c21.92 0 39.648 17.76 39.648 39.648s-17.728 39.648-39.648 39.648z" />
<glyph unicode="&#xe901;" glyph-name="Add_Image_Editor" d="M908.8 38.464h-793.6c-63.616 0.064-115.136 51.616-115.2 115.2v588.8c0.064 63.584 51.616 115.136 115.2 115.2h793.6c63.616-0.064 115.136-51.616 115.2-115.2v-588.8c-0.064-63.616-51.616-115.136-115.2-115.2v0zM115.2 780.864c-21.216 0-38.4-17.184-38.4-38.4v0-588.8c0-21.216 17.184-38.4 38.4-38.4v0h793.6c21.216 0 38.4 17.184 38.4 38.4v0 588.8c0 21.216-17.184 38.4-38.4 38.4v0zM39.264 90.688c0 0 0 0-0.032 0-21.216 0-38.4 17.184-38.4 38.4 0 10.624 4.32 20.224 11.296 27.2l231.424 231.424c16.256 16.224 38.688 26.272 63.488 26.272s47.232-10.048 63.488-26.272l61.888-61.888 190.144 228.256c16.448 19.68 40.96 32.16 68.384 32.32h0.032c1.152 0.064 2.496 0.096 3.84 0.096 26.24 0 49.632-12.288 64.704-31.392l0.128-0.16 254.88-297.376c5.76-6.688 9.248-15.424 9.248-25.024 0-21.216-17.184-38.4-38.432-38.4-11.648 0-22.080 5.184-29.12 13.344l-0.032 0.064-254.976 297.472c-2.528 2.592-5.952 4.256-9.792 4.544h-0.064c-3.936-0.032-7.456-1.824-9.824-4.64l-0.032-0.032-217.088-260.608c-6.72-8.032-16.576-13.248-27.68-13.76h-0.096c-0.608-0.032-1.312-0.064-2.016-0.064-10.528 0-20.032 4.32-26.848 11.264v0l-91.648 91.648c-2.016 2.944-5.376 4.864-9.184 4.864s-7.168-1.92-9.152-4.832l-231.456-231.392c-6.912-6.944-16.48-11.264-27.072-11.264-0.032 0-0.064 0-0.064 0v0zM255.936 499.264c56.544 0 102.4 45.856 102.4 102.4s-45.856 102.4-102.4 102.4c-56.544 0-102.4-45.856-102.4-102.4v0c0-56.544 45.856-102.4 102.4-102.4v0z" />
<glyph unicode="&#xe902;" glyph-name="Add_New_Contact" d="M114.112-44.288c-21.216 0-38.4 17.184-38.4 38.4v0c0.224 193.184 156.768 349.728 349.92 349.952h57.632c0.288 0 0.64 0 0.992 0 40.896 0 80.16-7.040 116.64-19.968l-2.432 0.768c15.104-5.44 25.696-19.648 25.696-36.32 0-21.28-17.248-38.496-38.496-38.496-4.576 0-8.992 0.8-13.056 2.272l0.256-0.096c-26.72 9.6-57.536 15.168-89.664 15.168-0.096 0-0.192 0-0.288 0h-57.6c-150.688-0.288-272.768-122.496-272.832-273.216v0c0-0.032 0-0.032 0-0.064 0-21.216-17.184-38.4-38.4-38.4 0 0 0 0 0 0v0zM710.272 680.64c0 143.36-116.224 259.584-259.584 259.584s-259.584-116.224-259.584-259.584c0-143.36 116.224-259.584 259.584-259.584v0c143.296 0.192 259.392 116.288 259.584 259.552v0.032zM633.472 680.64c-0.064-100.832-81.824-182.528-182.656-182.528-100.864 0-182.656 81.792-182.656 182.656 0 100.832 81.696 182.592 182.528 182.656v0c100.864-0.096 182.624-81.888 182.656-182.784v0zM908.672 186.496h-115.2v115.2c0 21.216-17.184 38.4-38.4 38.4s-38.4-17.184-38.4-38.4v0-115.2h-116.16c-21.216 0-38.4-17.184-38.4-38.4s17.184-38.4 38.4-38.4h115.2v-115.2c0-21.216 17.184-38.4 38.4-38.4s38.4 17.184 38.4 38.4v0 115.2h115.2c21.216 0 38.4 17.184 38.4 38.4s-17.184 38.4-38.4 38.4v0z" />
<glyph unicode="&#xe903;" glyph-name="Add_News" d="M160 892.96h705.824c77.696-0.128 140.672-63.104 140.8-140.8v-476.352c-0.128-77.696-63.104-140.672-140.8-140.8h-55.36l-1.088-124.352c-0.16-16.544-13.6-29.92-30.176-29.92-6.976 0-13.376 2.368-18.496 6.336l0.064-0.064-191.744 147.904h-409.024c-77.696 0.128-140.672 63.104-140.8 140.8v476.352c0.096 77.728 63.072 140.736 140.8 140.864v0zM79.552 275.776c0.064-44.416 36.064-80.384 80.448-80.448h419.328c0 0 0 0 0 0 6.976 0 13.408-2.368 18.528-6.336l-0.064 0.064 151.776-117.152 0.832 93.536c0.16 16.544 13.6 29.92 30.176 29.92 0 0 0 0 0 0h85.28c44.416 0.064 80.384 36.064 80.448 80.448v476.288c-0.064 44.416-36.064 80.384-80.448 80.448h-705.824c-44.416-0.064-80.384-36.064-80.448-80.448v-476.288zM348.416 610.816v74.016c0 8 6.496 14.496 14.528 14.496 3.008 0 5.792-0.896 8.096-2.464l-0.064 0.032 47.552-31.68c25.44-15.040 56.064-23.936 88.768-23.968h86.176c37.056-0.096 68.448-24.128 79.584-57.44l0.16-0.608h18.624c0.256 0 0.576 0 0.896 0 24.032 0 43.552-19.488 43.552-43.552s-19.488-43.552-43.552-43.552c-0.32 0-0.64 0-0.928 0h-18.592c-5.472-16.48-15.392-30.272-28.32-40.352l-0.192-0.128-22.56-158.272c-2.848-18.976-19.008-33.344-38.528-33.44h-37.728c-21.504 0.032-38.944 17.472-38.944 38.976 0 1.92 0.128 3.84 0.416 5.696l-0.032-0.224 10.24 71.808c-24.704 1.92-44.576 20.384-48.64 44.224l-0.032 0.32-1.472 8.704c-18.496-3.84-34.912-10.528-49.6-19.68l0.64 0.384-47.552-31.68c-2.272-1.536-5.056-2.432-8.032-2.432-8 0-14.496 6.496-14.528 14.496v74.016c-33.376 6.976-58.048 36.16-58.048 71.104s24.704 64.128 57.6 71.008l0.48 0.096zM677.344 525.216h14.496c7.808 0.288 14.016 6.688 14.016 14.496s-6.208 14.208-13.984 14.496h-14.56zM545.888 292.96h37.728c4.992 0.032 9.088 3.68 9.824 8.48v0.064l19.872 138.976c-5.952-1.504-12.768-2.368-19.808-2.368 0 0 0 0 0 0h-38.304l-16.608-116.064-2.528-17.696c-0.064-0.416-0.096-0.864-0.096-1.344 0-5.472 4.448-9.92 9.92-9.92 0 0 0 0 0 0v0zM497.504 429.568c1.984-11.712 12.064-20.512 24.16-20.512 0 0 0 0 0.032 0v0l4.16 29.024c-20.128 0-22.464 0.096-29.728-0.416zM435.488 454.592c21.344 7.712 45.952 12.288 71.616 12.576h86.336c30.304 0 54.848 24.576 54.848 54.848v0 35.36c0 30.304-24.544 54.848-54.848 54.848v0h-86.208c-25.792 0.288-50.4 4.864-73.312 13.056l1.568-0.48zM377.44 597.76v-176.032c27.52 18.272 25.888 17.312 29.024 19.232v197.472c-3.168 1.952-1.632 0.96-29.024 19.232zM348.448 498.656v82.112c-17.056-6.144-29.024-22.208-29.024-41.056s11.968-34.912 28.736-40.96l0.288-0.096z" />
<glyph unicode="&#xe904;" glyph-name="Add_Number" d="M937.6 484.096h-389.6v389.504c0.032 0.576 0.064 1.248 0.064 1.92 0 19.936-16.16 36.096-36.096 36.096s-36.096-16.16-36.096-36.096c0-0.672 0.032-1.344 0.064-1.984v0.096-389.504h-389.504c-0.576 0.032-1.248 0.064-1.92 0.064-19.936 0-36.096-16.16-36.096-36.096s16.16-36.096 36.096-36.096c0.672 0 1.344 0.032 1.984 0.064h389.408v-389.6c1.056-19.104 16.768-34.208 36.064-34.208s35.008 15.104 36.064 34.112v389.696h389.6c19.104 1.024 34.208 16.768 34.208 36.064s-15.104 35.008-34.112 36.064h-0.096z" />
<glyph unicode="&#xe905;" glyph-name="Add_Square" d="M841.152 960h-658.272c-100.928-0.128-182.72-81.92-182.848-182.848v-658.272c0.128-100.928 81.92-182.72 182.848-182.848h658.272c100.928 0.128 182.72 81.92 182.848 182.848v658.272c-0.128 100.928-81.92 182.72-182.848 182.848zM950.848 118.848c0-60.608-49.12-109.728-109.728-109.728h-658.272c-60.608 0-109.728 49.12-109.728 109.728v658.272c0 60.608 49.12 109.728 109.728 109.728h658.272c60.608 0 109.728-49.12 109.728-109.728v-658.272zM694.848 484.576h-146.272v146.272c0 20.192-16.384 36.576-36.576 36.576s-36.576-16.384-36.576-36.576v-146.272h-146.272c-20.192 0-36.576-16.384-36.576-36.576s16.384-36.576 36.576-36.576h146.272v-146.272c0-20.192 16.384-36.576 36.576-36.576s36.576 16.384 36.576 36.576v146.272h146.272c20.192 0 36.576 16.384 36.576 36.576s-16.384 36.576-36.576 36.576z" />
<glyph unicode="&#xe906;" glyph-name="Add_Video_Editor" d="M22.496 702.496c3.040 1.792 6.656 2.88 10.56 2.88 3.616 0 7.040-0.928 10.016-2.56l-0.096 0.064 225.696-123.136v73.728c0 0 0 0.032 0 0.032 0 57.504 46.56 104.128 104.032 104.256h518.496c57.472-0.064 104.064-46.656 104.128-104.128v-411.2c-0.064-57.472-46.656-104.064-104.128-104.128h-518.464c-57.44 0.128-103.968 46.688-104.032 104.128v72.576l-225.568-123.168c-2.88-1.632-6.368-2.592-10.048-2.592-11.488 0-20.8 9.312-20.8 20.8 0 0 0 0.032 0 0.032v0 474.496c0 7.584 4.064 14.208 10.144 17.856l0.096 0.064zM310.304 242.432c0.032-34.464 27.936-62.368 62.368-62.464h518.496c34.464 0.032 62.432 28 62.464 62.464v411.2c-0.032 34.464-28 62.432-62.464 62.464h-518.464c-34.464-0.064-62.368-28-62.432-62.464v0zM53.952 245.216l214.72 117.216v170.016l-214.752 117.024zM53.952 245.216" />
<glyph unicode="&#xe907;" glyph-name="Arrow_Left_Circle" d="M622.272 711.68c-8.512 8.48-20.288 13.696-33.248 13.696s-24.736-5.248-33.248-13.728v0l-232.256-233.024c-8.48-8.48-13.728-20.224-13.728-33.152 0-12.192 4.64-23.296 12.288-31.648l-0.032 0.032 228.864-229.632c8.512-8.512 20.256-13.76 33.248-13.76 25.984 0 47.072 21.088 47.072 47.072 0 13.024-5.28 24.8-13.824 33.312v0l-194.304 197.248 199.424 197.44c8.32 8.48 13.472 20.096 13.472 32.928 0 12.96-5.248 24.672-13.728 33.184v0zM512 954.432c-0.032 0-0.032 0-0.064 0-279.68 0-506.432-226.752-506.432-506.432s226.752-506.432 506.432-506.432c279.68 0 506.432 226.752 506.432 506.432v0c0 0.032 0 0.032 0 0.064 0 279.648-226.72 506.368-506.368 506.368v0zM814.912 145.088c-77.536-77.536-184.608-125.472-302.912-125.472-236.576 0-428.384 191.808-428.384 428.384 0 118.304 47.936 225.376 125.472 302.912v0c77.76 79.040 185.856 128 305.408 128 236.576 0 428.352-191.776 428.352-428.352 0-119.552-48.96-227.648-127.936-305.344l-0.064-0.064z" />
<glyph unicode="&#xe908;" glyph-name="Arrow_Left_Que" d="M1006.432 510.016h-752.064l345.44 345.44-87.712 86.912-494.368-494.368 494.368-494.368 87.168 87.168-344.864 345.44h752.064z" />
<glyph unicode="&#xe909;" glyph-name="Arrow_Sidebar_Collapsed" d="M567.488 447.776l-185.024 184.896c-6.336 6.304-10.272 15.040-10.272 24.672s3.936 18.368 10.272 24.672v0c6.368 6.272 15.104 10.176 24.768 10.176s18.4-3.872 24.768-10.176l209.664-209.504c6.304-6.304 10.176-15.008 10.176-24.64 0-9.088-3.488-17.376-9.184-23.584l0.032 0.032-210.528-210.944c-6.24-5.92-14.72-9.568-24.032-9.568-19.328 0-34.976 15.648-34.976 34.976 0 9.28 3.616 17.728 9.504 23.968l-0.032-0.032z" />
<glyph unicode="&#xe90a;" glyph-name="Arrow_Sidebar_Expand" d="M456.448 447.744l185.024 184.896c6.336 6.304 10.272 15.040 10.272 24.672s-3.936 18.368-10.24 24.672v0c-6.368 6.272-15.104 10.176-24.768 10.176s-18.4-3.872-24.768-10.176l-209.568-209.44c-6.304-6.304-10.176-15.008-10.176-24.64 0-9.088 3.488-17.376 9.184-23.584l-0.032 0.032 210.496-210.944c6.24-5.92 14.72-9.568 24.032-9.568 19.328 0 34.976 15.648 34.976 34.976 0 9.28-3.616 17.728-9.504 23.968v-0.032z" />
<glyph unicode="&#xe90b;" glyph-name="Arrow-Down" d="M512 331.776l386.944 387.328c13.184 13.28 31.456 21.472 51.648 21.472s38.464-8.224 51.648-21.472v0c13.12-13.312 21.248-31.584 21.248-51.776s-8.096-38.464-21.248-51.776l-438.528-438.784c-13.216-13.184-31.424-21.344-51.584-21.344-19.040 0-36.352 7.296-49.344 19.232l0.064-0.064-441.6 440.576c-11.84 12.96-19.072 30.272-19.072 49.312 0 40.448 32.768 73.216 73.216 73.216 18.944 0 36.224-7.2 49.216-19.008l-0.064 0.064z" />
<glyph unicode="&#xe90c;" glyph-name="Arrow-Left" d="M395.648 447.872l387.328-386.944c13.28-13.184 21.472-31.456 21.472-51.648s-8.224-38.464-21.472-51.648v0c-13.312-13.12-31.584-21.248-51.776-21.248s-38.464 8.096-51.776 21.248l-438.784 439.040c-13.184 13.216-21.344 31.424-21.344 51.584 0 19.040 7.296 36.352 19.232 49.344l440.512 440.896c13.056 12.32 30.72 19.872 50.144 19.872 40.448 0 73.216-32.768 73.216-73.216 0-19.328-7.488-36.928-19.744-50.016l0.032 0.032z" />
<glyph unicode="&#xe90d;" glyph-name="Arrow-Right" d="M628.224 448l-387.328-386.944c-13.28-13.184-21.472-31.456-21.472-51.648s8.224-38.464 21.472-51.648v0c13.312-13.12 31.584-21.248 51.776-21.248s38.464 8.096 51.776 21.248l438.784 438.528c13.184 13.216 21.344 31.424 21.344 51.552 0 19.232-7.424 36.704-19.584 49.728l0.032-0.032-440.576 441.6c-13.44 14.784-32.768 24.064-54.24 24.064-40.448 0-73.216-32.768-73.216-73.216 0-21.408 9.184-40.704 23.872-54.080l0.064-0.064z" />
<glyph unicode="&#xe90e;" glyph-name="Arrow-Top" d="M512 564.224l386.944-387.328c13.184-13.28 31.456-21.472 51.648-21.472s38.464 8.224 51.648 21.472v0c13.12 13.312 21.248 31.584 21.248 51.776s-8.096 38.464-21.248 51.776l-438.528 438.784c-13.216 13.184-31.424 21.344-51.552 21.344-19.232 0-36.704-7.424-49.728-19.584l0.032 0.032-441.6-440.576c-14.784-13.44-24.064-32.768-24.064-54.24 0-40.448 32.768-73.216 73.216-73.216 21.408 0 40.704 9.184 54.080 23.872l0.064 0.064z" />
<glyph unicode="&#xe90f;" glyph-name="Ascending_Descending" d="M739.68 546.464h-466.72l233.376 204.192 233.376-204.192zM506.304 716.672l-165.248-144.576h330.464l-165.248 144.576zM506.304 779.648c3.616 0 7.232-1.28 10.112-3.808l260.608-228.032c10.688-9.344 4.064-26.912-10.112-26.912h-521.248c-14.176 0-20.8 17.568-10.112 26.912l260.608 228.032c2.912 2.528 6.496 3.808 10.112 3.808zM272.96 349.536h466.72l-233.376-204.192-233.376 204.192zM506.336 179.328l165.248 144.576h-330.464l165.248-144.576zM506.336 116.352c-3.616 0-7.232 1.28-10.112 3.808l-260.608 228.032c-10.688 9.344-4.064 26.912 10.112 26.912h521.248c14.176 0 20.8-17.568 10.112-26.912l-260.608-228.032c-2.88-2.528-6.496-3.808-10.112-3.808z" />
<glyph unicode="&#xe910;" glyph-name="Attach_File" d="M450.048 758.080l356.352-356.352c68.48-68.48 68.48-179.552 0-248.032s-179.552-68.48-248.032 0v0l-387.392 387.392c-42.816 42.816-42.816 112.224 0 155.040s112.224 42.816 155.040 0v0l325.568-325.568c17.12-17.12 17.12-44.864 0-61.984s-44.864-17.12-61.984 0v0l-294.528 294.528-46.56-46.56 294.528-294.528c42.816-42.816 112.224-42.816 155.040 0s42.816 112.224 0 155.040v0l-325.568 325.568c-68.48 68.48-179.552 68.48-248.032 0s-68.48-179.552 0-248.032v0l387.392-387.392c94.176-94.176 246.88-94.176 341.024 0s94.176 246.88 0 341.056v0l-356.352 356.352z" />
<glyph unicode="&#xe911;" glyph-name="Bank_Managment" d="M533.024 742.304c-11.616 0-21.024 9.408-21.024 21.024v0 168.16c0 11.616 9.408 21.024 21.024 21.024s21.024-9.408 21.024-21.024v0-168.16c0-11.616-9.408-21.024-21.024-21.024v0zM364.832 742.304c-11.616 0-21.024 9.408-21.024 21.024v0 168.16c0 11.616 9.408 21.024 21.024 21.024s21.024-9.408 21.024-21.024v0-168.16c0-11.616-9.408-21.024-21.024-21.024v0zM196.672 742.304c-11.616 0-21.024 9.408-21.024 21.024v0 168.16c0 11.616 9.408 21.024 21.024 21.024s21.024-9.408 21.024-21.024v0-168.16c0-11.616-9.408-21.024-21.024-21.024v0zM764.256 132.672c-93.696 0-252.256 17.696-252.256 84.096 0 0.096 0 0.192 0 0.288 0 11.616 9.408 21.024 21.024 21.024 11.52 0 20.864-9.248 21.024-20.704v0c6.656-14.944 83.84-42.656 210.208-42.656 127.072 0 204.512 28.032 210.336 42.976 0 0 0 0 0 0 0 11.36 9.216 20.544 20.544 20.544 0.16 0 0.288 0 0.448 0h-0.032c11.616-0.256 20.928-9.696 20.928-21.344 0-0.032 0-0.064 0-0.096v0c0-66.432-158.56-84.128-252.256-84.128zM554.048 216.768h0.416zM764.256-56.512c-93.696 0-252.256 17.696-252.256 84.096v378.4c0 11.616 9.408 21.024 21.024 21.024s21.024-9.408 21.024-21.024v0-378.4c5.728-14.080 83.072-42.048 210.208-42.048s204.512 28.032 210.336 42.976l-0.128 377.472c0 11.616 9.408 21.024 21.024 21.024s21.024-9.408 21.024-21.024v0-378.4c0-66.4-158.56-84.096-252.256-84.096zM406.848-56.512h-294.272c-58.016 0.064-105.056 47.072-105.12 105.088v378.4c0.032 34.816 28.256 63.008 63.072 63.072v0c11.616 0.032 20.992 9.408 21.024 21.024v84.096c-0.032 11.616-9.408 20.992-21.024 21.024v0c-34.816 0.032-63.008 28.256-63.072 63.072v168.192c0.064 58.016 47.072 105.056 105.088 105.12h427.648c0.064 0 0.16 0 0.256 0 28.928 0 55.136-11.776 74.048-30.784l160.928-160.96c19.008-18.944 30.784-45.152 30.784-74.112 0-0.096 0-0.16 0-0.256v0-91.296c0-11.616-9.408-21.024-21.024-21.024s-21.024 9.408-21.024 21.024v0 91.296c0 0.032 0 0.096 0 0.16 0 17.376-7.072 33.088-18.464 44.448l-160.864 160.96c-11.36 11.424-27.072 18.496-44.48 18.496-0.064 0-0.096 0-0.16 0h-427.68c-34.816-0.032-63.008-28.256-63.072-63.072v-168.192c0.032-11.616 9.408-20.992 21.024-21.024v0c34.816-0.032 63.008-28.256 63.072-63.072v-84.096c-0.032-34.816-28.256-63.008-63.072-63.072v0c-11.616-0.032-20.992-9.408-21.024-21.024v-378.4c0.032-34.816 28.256-63.008 63.072-63.072h294.272c11.616 0 21.024-9.408 21.024-21.024s-9.408-21.024-21.024-21.024v0zM406.88 69.6h-210.208c-34.816 0.032-63.008 28.256-63.072 63.072v210.208c0.032 34.816 28.256 63.008 63.072 63.072h210.208c11.616 0 21.024-9.408 21.024-21.024s-9.408-21.024-21.024-21.024v0h-210.208c-11.616-0.032-20.992-9.408-21.024-21.024v-210.208c0.032-11.616 9.408-20.992 21.024-21.024h210.208c11.616 0 21.024-9.408 21.024-21.024s-9.408-21.024-21.024-21.024v0zM764.256 321.856c-93.696 0-252.256 17.696-252.256 84.096s158.56 84.096 252.256 84.096 252.256-17.696 252.256-84.096-158.56-84.096-252.256-84.096zM764.256 448c-127.072 0-204.48-28.032-210.336-42.976 5.888-13.216 83.328-41.12 210.336-41.12 124.576 0 201.44 26.88 209.92 42.048-8.48 15.168-85.344 42.048-209.92 42.048zM974.624 405.024h0.416z" />
<glyph unicode="&#xe912;" glyph-name="Benefit" d="M963.712 337.504h-111.968c-0.096 0-0.224 0-0.32 0-19.712 0-36.768-11.36-44.96-27.936l-0.128-0.288c-25.248 4.992-54.272 7.872-83.968 7.872-1.6 0-3.2 0-4.768-0.032h0.256c-68.16 0-162.112-10.176-227.136-73.664-84.608 0.768-127.68-0.8-127.68-0.8-0.064 0-0.16 0-0.224 0-23.168 0-43.744-10.976-56.832-28.032l-0.128-0.16c-8.416-10.656-14.272-23.68-16.384-37.952l-0.064-0.448c-144.192 40.736-164.48 47.008-167.616 47.808-10.72 3.168-23.072 5.152-35.84 5.472h-4.896c-0.96 0.064-2.048 0.064-3.168 0.064-29.088 0-53.792-18.88-62.464-45.056l-0.128-0.48c-1.728-5.28-2.72-11.392-2.72-17.696 0-25.024 15.584-46.432 37.568-55.040l0.416-0.128 329.76-149.696c25.408-9.472 54.784-14.944 85.44-14.944 1.92 0 3.808 0.032 5.728 0.064h-0.288c38.72 0.384 75.84 6.688 110.72 17.984l-2.624-0.736 229.472 71.296c8.544-15.968 25.088-26.656 44.128-26.656 0.16 0 0.352 0 0.512 0h112c0.192 0 0.416 0 0.64 0 26.752 0 48.544 21.184 49.504 47.712v233.664c-2.272 26.784-24.544 47.712-51.712 47.808v0zM568.16-9.632c-28.96-9.952-62.336-15.68-97.024-15.68-0.576 0-1.152 0-1.728 0h0.096c-1.632-0.032-3.552-0.064-5.472-0.064-26.4 0-51.712 4.608-75.168 13.088l1.536-0.48h-0.768l-327.424 148.896c-11.84 4.928-20 16.384-20 29.728 0 3.072 0.448 6.048 1.248 8.864l-0.064-0.224c7.040 36.064 60.32 23.52 68.96 21.152 0 0 119.84-33.696 177.792-50.144 7.392-20.672 24.096-36.352 44.928-42.176l0.48-0.096h196.576c0.192 0 0.416 0 0.64 0 7.808 0 14.176 6.304 14.24 14.112v0c-0.256 8.704-7.040 15.776-15.616 16.448h-191.936c-24.288 3.904-23.488 38.4-14.112 56.416 7.040 14.112 37.6 22.72 37.6 22.72l140.96-0.768c57.952 63.456 148.032 75.232 213.824 75.232 0.736 0 1.632 0 2.496 0 28.736 0 56.864-2.56 84.16-7.488l-2.88 0.416 0.768-217.056zM984.032 55.392c0 0 0 0 0 0 0-10.816-8.768-19.584-19.584-19.584-0.288 0-0.544 0-0.8 0.032h-111.904c-0.064 0-0.128 0-0.192 0-10.72 0-19.392 8.672-19.392 19.392 0 0.064 0 0.128 0 0.192v0 234.336c0 0.064 0 0.128 0 0.192 0 10.72 8.672 19.392 19.392 19.392 0.064 0 0.128 0 0.192 0h112c0.096 0 0.192 0 0.288 0 10.912 0 19.776-8.704 20.064-19.552v-0.032zM412.384 691.808c-14.24 0-25.792 11.552-25.792 25.792s11.552 25.792 25.792 25.792v0c11.104-0.768 20.896-5.792 27.84-13.44l0.032-0.032c4.64-4.48 10.944-7.264 17.92-7.264 14.24 0 25.76 11.552 25.76 25.76 0 7.264-3.008 13.824-7.84 18.528v0c-10.4 10.4-23.104 18.496-37.248 23.52l-0.704 0.224v30.016c0 14.24-11.552 25.792-25.792 25.792s-25.792-11.552-25.792-25.792v0-30.208c-30.272-10.944-51.52-39.424-51.52-72.896 0-42.688 34.592-77.312 77.28-77.312v0c14.24 0 25.792-11.552 25.792-25.792s-11.552-25.792-25.792-25.792v0c-13.856 1.44-25.76 8.736-33.344 19.36l-0.096 0.128c-4.768 5.632-11.84 9.184-19.744 9.184-14.24 0-25.792-11.552-25.792-25.792 0-6.336 2.272-12.128 6.080-16.64l-0.032 0.032c12.192-15.040 28.128-26.624 46.4-33.312l0.736-0.224v-30.080c0-14.24 11.552-25.792 25.792-25.792s25.792 11.552 25.792 25.792v0 30.208c30.272 10.944 51.52 39.424 51.52 72.896 0 42.688-34.592 77.312-77.28 77.312v0zM412.384 949.536c-156.576 0-283.52-126.944-283.52-283.52s126.944-283.52 283.52-283.52c156.576 0 283.52 126.944 283.52 283.52v0c-0.192 156.512-127.008 283.328-283.52 283.52h-0.032zM412.384 434.048c-128.096 0-231.968 103.84-231.968 231.968s103.84 231.968 231.968 231.968c128.096 0 231.968-103.84 231.968-231.968v0c-0.16-128.064-103.904-231.808-231.936-231.968v0z" />
<glyph unicode="&#xe913;" glyph-name="Bill" d="M826.72 958.56c-2.272 0.928-4.928 1.472-7.68 1.472-6.208 0-11.776-2.688-15.616-6.976l-0.032-0.032-45.568-49.824-45.568 49.568c-3.904 4.256-9.504 6.912-15.712 6.912-5.568 0-10.656-2.144-14.464-5.632v0l-1.28-1.28-45.536-49.568-45.568 49.792c-3.904 4.256-9.504 6.912-15.712 6.912-5.568 0-10.656-2.144-14.464-5.632v0l-1.28-1.28-45.536-49.568-45.568 49.568c-3.904 4.256-9.504 6.912-15.712 6.912-5.568 0-10.656-2.144-14.464-5.632v0l-1.28-1.28-45.568-49.568-45.536 49.568c-3.904 4.256-9.504 6.912-15.712 6.912-5.568 0-10.656-2.144-14.464-5.632v0l-1.28-1.28-45.568-49.568-45.792 49.568c-3.84 4.288-9.376 6.944-15.52 6.944-11.488 0-20.832-9.312-20.832-20.832 0-0.16 0-0.288 0-0.448v0.032-981.344c0-0.096 0-0.224 0-0.352 0-11.424 9.12-20.736 20.512-20.992h0.032c0.224 0 0.448 0 0.704 0 6.080 0 11.552 2.624 15.328 6.816v0.032l45.568 49.824 45.568-49.632c3.904-4.256 9.504-6.912 15.712-6.912 5.568 0 10.656 2.144 14.464 5.632v0l1.28 1.28 45.568 49.632 45.344-49.568c3.904-4.256 9.504-6.912 15.712-6.912 5.568 0 10.656 2.144 14.464 5.632v0l1.28 1.28 45.568 49.632 45.568-49.632c3.904-4.256 9.504-6.912 15.712-6.912 5.568 0 10.656 2.144 14.464 5.632v0l1.28 1.28 45.568 49.632 45.568-49.632c3.904-4.256 9.504-6.912 15.712-6.912 5.568 0 10.656 2.144 14.464 5.632v0l1.28 1.28 45.568 49.632 45.568-49.632c3.904-4.192 9.472-6.816 15.648-6.816 0.064 0 0.128 0 0.192 0v0c0.064 0 0.16 0 0.256 0 2.528 0 4.928 0.544 7.104 1.536l-0.096-0.032c7.84 3.136 13.28 10.656 13.28 19.424 0 0.16 0 0.32 0 0.48v-0.032 981.024c0 0.288 0.032 0.608 0.032 0.928 0 8.576-5.312 15.936-12.864 18.912l-0.128 0.064zM758.048 45.952c-6.272 0-11.904-2.72-15.808-7.008v-0.032l-45.568-49.824-45.568 49.632c-3.904 4.256-9.504 6.912-15.712 6.912-5.568 0-10.656-2.144-14.464-5.632v0l-1.28-1.28-45.568-49.632-45.568 49.632c-3.904 4.256-9.504 6.912-15.712 6.912-5.568 0-10.656-2.144-14.464-5.632v0l-1.28-1.28-45.568-49.632-45.568 49.632c-3.904 4.256-9.504 6.912-15.712 6.912-5.568 0-10.656-2.144-14.464-5.632v0l-1.28-1.28-45.568-49.632-45.664 49.824c-3.904 4.32-9.568 7.040-15.84 7.040v0c-0.032 0-0.064 0-0.096 0-6.112 0-11.584-2.72-15.296-7.008l-0.032-0.032-23.712-26.528v871.296l23.808-26.272c3.712-4.32 9.216-7.040 15.328-7.040 0.032 0 0.064 0 0.096 0v0c6.272 0 11.904 2.72 15.808 7.008l0.032 0.032 45.568 49.824 45.44-49.632c3.904-4.256 9.504-6.912 15.712-6.912 5.568 0 10.656 2.144 14.464 5.632v0l1.28 1.28 45.568 49.632 45.568-49.632c3.904-4.256 9.504-6.912 15.712-6.912 5.568 0 10.656 2.144 14.464 5.632v0l1.28 1.28 45.568 49.632 45.536-49.632c3.904-4.256 9.504-6.912 15.712-6.912 5.568 0 10.656 2.144 14.464 5.632v0l1.28 1.28 45.568 49.632 45.568-49.824c3.904-4.32 9.568-7.040 15.84-7.040v0c0.032 0 0.064 0 0.096 0 6.112 0 11.584 2.72 15.296 7.008l0.032 0.032 23.936 26.528v-871.328l-23.712 26.336c-3.712 4.32-9.216 7.040-15.328 7.040-0.032 0-0.096 0-0.128 0v0zM628.832 403.424c-16.224 49.472-61.952 84.576-115.904 84.576-0.032 0-0.032 0-0.064 0v0c-25.92 0-46.944 21.024-46.944 46.944s21.024 46.944 46.944 46.944c25.92 0 46.944-21.024 46.944-46.944v0-0.384c0-20.672 16.768-37.408 37.408-37.408s37.408 16.768 37.408 37.408v0c0 0 0 0.032 0 0.064 0 53.952-35.104 99.712-83.712 115.68l-0.864 0.256v23.552c0 20.672-16.768 37.408-37.408 37.408s-37.408-16.768-37.408-37.408v-23.552c-49.376-16.352-84.384-62.080-84.384-116 0-67.296 54.496-121.856 121.792-121.952v0c0.096 0 0.224 0 0.352 0 25.984 0 47.040-20.992 47.2-46.912v0c0.16-1.408 0.256-3.040 0.256-4.672 0-23.776-19.264-43.040-43.040-43.040-1.472 0-2.912 0.064-4.32 0.224h0.192c0 0.384-0.384 0-0.768 0-25.952 0.16-46.944 21.216-46.944 47.2 0 0.128 0 0.256 0 0.352v-0.032c0 20.672-16.768 37.408-37.408 37.408s-37.408-16.768-37.408-37.408v0c0.096-53.92 35.136-99.648 83.712-115.712l0.864-0.256v-23.936c0-20.672 16.768-37.408 37.408-37.408s37.408 16.768 37.408 37.408v0 23.936c49.536 16.256 84.672 62.112 84.672 116.128 0 13.44-2.176 26.4-6.208 38.496l0.256-0.864z" />
<glyph unicode="&#xe914;" glyph-name="Bill_Send" d="M1002.656 469.344c11.936 0 21.344-9.376 21.344-21.344s-9.376-21.344-21.344-21.344h-21.344v42.656zM533.344 469.344h448v-42.656h-448zM917.344-64h-405.344c11.936 0 21.344 9.376 21.344 21.344v21.344h384c35.424 0 64 28.576 64 64v384h21.344c11.936 0 21.344 9.376 21.344 21.344v-405.344c0-58.88-47.776-106.656-106.656-106.656zM1024 853.344v-405.344c0 11.936-9.376 21.344-21.344 21.344h-21.344v384c0 35.424-28.576 64-64 64h-384v21.344c0 11.936-9.376 21.344-21.344 21.344h405.344c58.88 0 106.656-47.776 106.656-106.656zM853.344 704c11.936 0 21.344-9.376 21.344-21.344s-9.376-21.344-21.344-21.344h-170.656c-11.936 0-21.344 9.376-21.344 21.344s9.376 21.344 21.344 21.344zM853.344 277.344c11.936 0 21.344-9.376 21.344-21.344s-9.376-21.344-21.344-21.344h-170.656c-11.936 0-21.344 9.376-21.344 21.344s9.376 21.344 21.344 21.344zM853.344 149.344c11.936 0 21.344-9.376 21.344-21.344s-9.376-21.344-21.344-21.344h-170.656c-11.936 0-21.344 9.376-21.344 21.344s9.376 21.344 21.344 21.344zM533.344-21.344v-21.344c0-11.936-9.376-21.344-21.344-21.344s-21.344 9.376-21.344 21.344v21.344zM490.656 426.656h42.656v-448h-42.656zM490.656 469.344h42.656v-42.656h-42.656zM490.656 917.344h42.656v-448h-42.656zM533.344 938.656v-21.344h-42.656v21.344c0 11.936 9.376 21.344 21.344 21.344s21.344-9.376 21.344-21.344zM42.656 469.344h448v-42.656h-448zM341.344 704c11.936 0 21.344-9.376 21.344-21.344s-9.376-21.344-21.344-21.344h-64v42.656zM334.944 142.944c8.544-8.096 8.544-21.76 0-29.856-3.84-4.256-9.376-6.4-14.944-6.4s-11.104 2.144-14.944 6.4l-49.056 49.056 29.856 29.856zM305.056 270.944c8.096 8.544 21.76 8.544 29.856 0 8.544-8.096 8.544-21.76 0-29.856l-49.056-49.056-29.856 29.856zM226.016 192.032l29.856 29.856 29.856-29.856-29.856-29.856zM277.344 661.344v-64c0-11.936-9.376-21.344-21.344-21.344s-21.344 9.376-21.344 21.344v64zM234.656 704h42.656v-42.656h-42.656zM277.344 768v-64h-42.656v64c0 11.936 9.376 21.344 21.344 21.344s21.344-9.376 21.344-21.344zM256 221.856l-29.856-29.856-49.056 49.056c-8.544 8.096-8.544 21.76 0 29.856 8.096 8.544 21.76 8.544 29.856 0zM234.656 704v-42.656h-64c-11.936 0-21.344 9.376-21.344 21.344s9.376 21.344 21.344 21.344zM206.944 113.056c-3.84-4.256-9.376-6.4-14.944-6.4s-11.104 2.144-14.944 6.4c-8.544 8.096-8.544 21.76 0 29.856l49.056 49.056 29.856-29.856zM42.656 469.344v-42.656h-21.344c-11.936 0-21.344 9.376-21.344 21.344s9.376 21.344 21.344 21.344zM0 853.344c0 58.88 47.776 106.656 106.656 106.656h405.344c-11.936 0-21.344-9.376-21.344-21.344v-21.344h-384c-35.424 0-64-28.576-64-64v-384h-21.344c-11.936 0-21.344-9.376-21.344-21.344zM42.656 42.656c0-35.424 28.576-64 64-64h384v-21.344c0-11.936 9.376-21.344 21.344-21.344h-405.344c-58.88 0-106.656 47.776-106.656 106.656v405.344c0-11.936 9.376-21.344 21.344-21.344h21.344z" />
<glyph unicode="&#xe915;" glyph-name="Black_List" d="M747.232 263.52h-172.416c-16.224 0-29.408-13.152-29.408-29.408s13.152-29.408 29.408-29.408h172.416c16.224 0 29.376 13.152 29.376 29.376s-13.152 29.376-29.376 29.376v0zM747.232 493.152h-172.416c-16.224 0-29.408-13.152-29.408-29.408s13.152-29.408 29.408-29.408h172.416c16.224 0 29.376 13.152 29.376 29.376s-13.152 29.376-29.376 29.376v0zM372.48 315.392c-4.736 3.424-10.688 5.472-17.088 5.472-9.824 0-18.528-4.832-23.84-12.224l-0.064-0.096-15.264-21.376-15.264 21.376c-5.408 7.488-14.080 12.32-23.904 12.32-16.224 0-29.408-13.152-29.408-29.408 0-6.4 2.048-12.352 5.536-17.184l-0.064 0.096 26.976-37.792-26.976-37.792c-3.424-4.736-5.472-10.688-5.472-17.088 0-16.224 13.152-29.408 29.408-29.408 9.824 0 18.528 4.832 23.872 12.224l0.064 0.096 15.264 21.376 15.264-21.376c5.408-7.488 14.080-12.32 23.904-12.32 16.224 0 29.408 13.152 29.408 29.408 0 6.4-2.048 12.352-5.536 17.184l0.064-0.096-26.976 37.792 26.976 37.792c3.424 4.736 5.472 10.688 5.472 17.088 0 9.824-4.832 18.528-12.224 23.84l-0.096 0.064zM372.48 545.248c-4.736 3.424-10.688 5.472-17.088 5.472-9.824 0-18.528-4.832-23.84-12.224l-0.064-0.096-15.264-21.376-15.264 21.376c-5.408 7.488-14.080 12.32-23.904 12.32-16.224 0-29.408-13.152-29.408-29.408 0-6.4 2.048-12.352 5.536-17.184l-0.064 0.096 26.976-37.792-26.976-37.792c-3.424-4.736-5.472-10.688-5.472-17.088 0-16.224 13.152-29.408 29.408-29.408 9.824 0 18.528 4.832 23.872 12.224l0.064 0.096 15.264 21.376 15.264-21.376c5.408-7.488 14.080-12.32 23.904-12.32 16.224 0 29.408 13.152 29.408 29.408 0 6.4-2.048 12.352-5.536 17.184l0.064-0.096-26.976 37.792 26.976 37.792c3.424 4.736 5.472 10.688 5.472 17.088 0 9.824-4.832 18.528-12.224 23.84l-0.096 0.064zM792.288 848.768v12.544c0 48.704-39.456 88.192-88.16 88.256h-384c-48.672-0.064-88.096-39.488-88.16-88.16v-12.544c-63.552-17.184-109.568-74.24-109.728-142.080v-613.376c0.096-81.12 65.824-146.848 146.912-146.944h485.888c81.12 0.096 146.848 65.824 146.944 146.912v613.248c-0.16 67.84-46.176 124.928-108.672 141.856l-1.024 0.224zM290.752 861.312c0.032 16.224 13.152 29.344 29.376 29.376h384c16.192-0.032 29.312-13.12 29.376-29.28v-72.512c-0.032-16.224-13.152-29.344-29.376-29.376h-384c-16.224 0.032-29.344 13.152-29.376 29.376v0zM843.232 93.376c-0.064-48.672-39.488-88.096-88.16-88.16h-485.888c-48.672 0.064-88.096 39.488-88.16 88.16v613.248c0.064 35.168 20.672 65.536 50.464 79.712l0.544 0.224c1.376-47.648 40.288-85.728 88.096-85.792h384c47.84 0.064 86.752 38.176 88.096 85.696v0.128c30.336-14.4 50.944-44.768 50.976-79.936v0z" />
<glyph unicode="&#xe916;" glyph-name="Bold" d="M747.584 463.36c68.224 44.736 114.272 118.432 120.64 203.2l0.064 0.896c0.032 1.248 0.032 2.72 0.032 4.192 0 159.264-129.12 288.384-288.384 288.384-1.504 0-2.976 0-4.48-0.032h-456.928v-1024h514.944c150.624 3.328 271.424 126.208 271.424 277.312 0 109.536-63.488 204.256-155.68 249.312l-1.632 0.736zM337.984 776.96h219.456c60.608 0 109.728-49.12 109.728-109.728s-49.12-109.728-109.728-109.728h-219.456zM593.984 118.656h-256v219.648h256c60.608 0 109.728-49.12 109.728-109.728s-49.12-109.728-109.728-109.728v0z" />
<glyph unicode="&#xe917;" glyph-name="BTS" d="M882.464 952.608v0.096c-5.696 7.808-16.64 9.536-24.448 3.84-7.712-5.632-9.504-16.384-4.032-24.192 104.128-145.76 104.128-341.568 0-487.328-5.664-7.84-3.872-18.784 3.968-24.448 0.032-0.032 0.064-0.064 0.096-0.064 7.872-5.6 18.784-3.808 24.384 4.064 112.832 157.92 112.832 370.112 0 528.064zM165.952 956.736c0 0 0 0 0 0-7.872 5.6-18.784 3.776-24.416-4.064-112.832-157.92-112.832-370.112 0-528.064 5.696-7.808 16.64-9.536 24.448-3.84 7.712 5.632 9.504 16.384 4.032 24.192-104.128 145.76-104.128 341.568 0 487.328 5.6 7.872 3.808 18.784-4.064 24.416zM277.248 870.944c5.92 7.648 4.512 18.624-3.104 24.544 0 0 0 0 0 0-7.616 5.888-18.56 4.544-24.512-3.040-93.504-119.776-93.504-287.808 0-407.584 5.952-7.616 16.928-8.992 24.576-3.040s8.992 16.928 3.040 24.576c-83.68 107.136-83.68 257.44 0 364.576zM749.856 895.488c0 0 0 0 0 0-7.584-5.952-8.96-16.896-3.040-24.512 83.68-107.104 83.68-257.44 0-364.576-5.952-7.616-4.576-18.624 3.040-24.576s18.624-4.576 24.576 3.040c93.504 119.776 93.504 287.808 0 407.584-5.952 7.616-16.96 8.96-24.576 3.008zM639.424 808.416c63.488-67.2 63.488-172.288 0-239.488-6.624-7.040-6.304-18.112 0.736-24.736 0 0 0 0 0 0 7.040-6.624 18.112-6.272 24.736 0.768 0 0 0 0 0 0 76.16 80.672 76.16 206.752 0 287.456-6.56 7.104-17.632 7.52-24.736 0.96s-7.52-17.632-0.96-24.736c0.064-0.064 0.128-0.128 0.192-0.192zM371.808 539.424c9.664 0 17.504 7.84 17.504 17.504 0 4.448-1.696 8.736-4.768 12-63.488 67.2-63.488 172.288 0 239.488 6.688 6.976 6.432 18.080-0.576 24.736s-18.080 6.432-24.736-0.576c-0.064-0.064-0.128-0.128-0.192-0.192-76.16-80.672-76.16-206.752 0-287.456 3.296-3.52 7.904-5.504 12.736-5.504zM739.008-42.144l-170.432 664.608c36.864 31.264 41.44 86.464 10.176 123.36s-86.464 41.44-123.36 10.176c-36.864-31.264-41.44-86.464-10.176-123.36 3.104-3.68 6.496-7.072 10.176-10.176l-170.4-664.608c-2.4-9.376 3.232-18.912 12.576-21.312 0 0 0.032 0 0.032 0 1.408-0.352 2.88-0.544 4.352-0.544 8 0 14.944 5.408 16.96 13.152l5.856 22.752c0.992 0.288 1.92 0.64 2.848 1.088l327.2 172.224 50.272-196.032c1.984-7.744 8.96-13.184 16.992-13.152 1.472 0 2.944 0.192 4.352 0.544 9.376 2.4 15.008 11.936 12.64 21.28 0 0 0 0.032 0 0.032zM570.272 474.944l-95.2 83.296 12.032 46.944c8.032-2.56 16.416-3.936 24.864-4.032 8.448 0.128 16.832 1.472 24.864 4.032l33.408-130.24zM512 741.184c28.992 0 52.512-23.52 52.512-52.512s-23.52-52.512-52.512-52.512-52.512 23.52-52.512 52.512 23.52 52.512 52.512 52.512zM465.344 520.256l105.44-92.288-155.776-103.808 50.368 196.064zM336.352 17.184l62.848 245.056 213.536-99.616-276.384-145.408zM425.088 288.768l164.768 109.856 54.4-212.096-219.136 102.24z" />
<glyph unicode="&#xe918;" glyph-name="Bullet_Point_Editor" d="M984 488h-695.488c-22.080 0-40-17.92-40-40s17.92-40 40-40h695.488c22.080 0 40 17.92 40 40s-17.92 40-40 40zM984 788h-695.488c-22.080 0-40-17.92-40-40s17.92-40 40-40h695.488c22.080 0 40 17.92 40 40s-17.92 40-40 40zM984 188h-695.488c-22.080 0-40-17.92-40-40s17.92-40 40-40h695.488c22.080 0 40 17.92 40 40s-17.92 40-40 40zM108 748c0-29.824-24.192-54.016-54.016-54.016s-54.016 24.192-54.016 54.016c0 29.824 24.192 54.016 54.016 54.016s54.016-24.192 54.016-54.016zM108 448c0-29.824-24.192-54.016-54.016-54.016s-54.016 24.192-54.016 54.016c0 29.824 24.192 54.016 54.016 54.016s54.016-24.192 54.016-54.016zM108 148c0-29.824-24.192-54.016-54.016-54.016s-54.016 24.192-54.016 54.016c0 29.824 24.192 54.016 54.016 54.016s54.016-24.192 54.016-54.016z" />
<glyph unicode="&#xe919;" glyph-name="Call_In_Out" d="M441.28 99.904l-31.488 157.6c-1.408 7.168-4.96 14.144-10.656 19.808-8.8 8.8-20.736 12.512-32.224 11.168h-0.096l-62.944-7.872c-5.024-0.672-10.208 0.896-14.048 4.704-2.112 2.112-3.52 4.608-4.256 7.296l0.032-0.096-2.336 8.128c-7.904 26.848-17.728 60.224-17.696 147.328s9.824 120.544 17.696 147.328l2.368 8.128c0.704 2.624 2.144 5.184 4.256 7.296 3.808 3.808 8.992 5.376 13.952 4.736h0.064l62.912-7.84c11.584-1.376 23.52 2.368 32.32 11.136 5.664 5.664 9.216 12.64 10.688 19.968l-0.032-0.16 31.488 157.6c2.432 12.416-1.12 25.632-10.624 35.104-5.216 5.216-11.584 8.64-18.272 10.272l0.192-0.064-63.296 15.776c-19.584 4.96-40.256 2.496-57.952-7.264l-0.48-0.288c-66.080-37.664-144.96-137.92-144.96-401.664 0-209.792 49.888-316.128 103.584-369.824 0.192-0.192 0.384-0.384 0.608-0.608 12.8-12.8 26.944-23.456 41.952-31.936l-1.184 0.736c18.176-10.080 38.848-12.544 58.048-7.68l0.384 0.128 63.296 15.744c6.528 1.568 12.864 4.992 18.112 10.24 9.504 9.504 13.056 22.688 10.656 34.976l-0.032 0.16zM407.168 75.936l-63.264-15.808c-14.112-3.616-28.992-1.856-41.76 5.152l-0.352 0.224c-61.024 34.752-133.824 129.312-133.824 382.528s72.736 347.744 133.792 382.496c13.152 7.232 28.064 8.96 41.888 5.44l0.288-0.096 63.264-15.808c2.816-0.672 5.568-2.176 7.84-4.448 4.128-4.128 5.664-9.856 4.608-15.168l-0.032-0.064-31.552-157.536c-0.608-3.104-2.176-6.144-4.608-8.608-3.808-3.808-8.992-5.44-13.984-4.864h-0.032l-62.912 7.872c-11.552 1.504-23.552-2.144-32.352-10.944-4.896-4.896-8.192-10.784-9.92-17.024l0.064 0.192-2.304-7.904c-8.32-28.224-18.624-63.264-18.624-153.568s10.336-125.376 18.624-153.568l2.304-7.936c1.632-6.016 4.96-11.904 9.856-16.8 8.8-8.8 20.768-12.448 32.224-10.976l0.096 0.032 62.944 7.872c5.024 0.576 10.208-1.024 14.016-4.832 2.464-2.464 4-5.504 4.64-8.672l-0.032 0.064 31.488-157.6c1.056-5.376-0.48-11.104-4.608-15.232-2.272-2.272-5.024-3.744-7.936-4.448l0.096 0.032zM622.848 770.304c-7.2 0.096-14.432-2.688-19.808-8.256-4.992-5.184-7.52-11.808-7.616-18.496v0.032l-0.704-53.984c0.288-7.104 3.2-14.112 8.704-19.456 5.088-4.896 11.52-7.552 18.048-8h-0.064l118.56-1.568c0.896-0.064 1.76-0.448 2.464-1.12 0.768-0.736 1.184-1.728 1.216-2.72v0l-0.352-15.52c-0.448-5.792 1.472-11.68 5.792-16.096l0.032-0.032c7.072-6.336 17.728-6.304 24.736-0.032l0.032 0.032 94.144 68.48c1.184 0.8 2.432 1.824 3.552 3.008 3.904 4.032 6.048 9.088 6.432 14.272v-0.064c0.384 6.4-1.92 12.864-6.848 17.632-0.128 0.128-0.224 0.224-0.352 0.352l0.032-0.032c-0.032 0.032-0.032 0.032-0.064 0.064-0.736 0.704-1.504 1.344-2.272 1.952l0.096-0.064-91.904 70.944c-7.296 7.072-18.944 6.848-26.016-0.448-3.904-4.032-5.568-9.376-5.088-14.56v-0.032l-0.224-14.144c0-0.928-0.352-1.856-1.056-2.56-0.032-0.032-0.096-0.096-0.128-0.128v0c-0.768-0.736-1.76-1.12-2.752-1.088v0zM760.384 753.184c0.192 0.192 0.416 0.416 0.64 0.64 4.992 5.152 7.488 11.776 7.552 18.432v0l0.032 3.2c0.032 1.76 5.504-1.024 12.288-6.24l61.28-47.264c0.544-0.352 1.12-0.8 1.664-1.312 4.352-4.192 4.48-11.136 0.256-15.488-0.672-0.704-1.44-1.312-2.24-1.792l0.064 0.032-62.688-45.568c-6.912-5.024-12.48-7.392-12.416-5.28l0.064 3.808c-0.192 7.168-3.104 14.24-8.672 19.616-5.056 4.896-11.488 7.52-17.984 7.936h0.064l-118.56 1.6c-0.928 0.064-1.824 0.48-2.528 1.152-0.8 0.768-1.216 1.76-1.28 2.752v0l0.736 53.92c0 0.96 0.384 1.888 1.088 2.624 0.768 0.8 1.792 1.184 2.816 1.184v0l118.56-1.6c6.976-0.128 13.952 2.432 19.264 7.648l0.032 0.032zM821.696 262.976c7.2 0.096 14.432-2.688 19.808-8.256 4.992-5.184 7.52-11.808 7.616-18.496v0.032l0.736-53.984c-0.288-7.104-3.2-14.144-8.704-19.456-5.088-4.896-11.52-7.552-18.048-8h0.064l-118.56-1.568c-0.896-0.064-1.76-0.448-2.464-1.12-0.768-0.736-1.184-1.728-1.216-2.72v0l0.352-15.52c0.448-5.76-1.504-11.616-5.76-16l-0.032-0.032c-7.072-6.336-17.728-6.304-24.736-0.032l-0.032 0.032-94.176 68.448c-1.184 0.8-2.432 1.824-3.552 3.008-3.904 4.032-6.048 9.088-6.432 14.272v-0.064c-0.384 6.4 1.92 12.864 6.848 17.632 0.128 0.128 0.224 0.224 0.352 0.352l-0.032-0.032c0.032 0.032 0.032 0.032 0.064 0.064 0.736 0.704 1.504 1.344 2.272 1.952l-0.096-0.064 91.936 70.944c5.824 5.184 13.92 6.304 20.736 3.456l0.128-0.064c1.664-0.864 3.328-2.112 4.8-3.616 3.968-4.128 5.792-9.536 5.472-14.848v-0.032l0.224-14.112c0-0.928 0.352-1.856 1.056-2.56 0.032-0.032 0.096-0.096 0.128-0.128v0c0.768-0.736 1.76-1.12 2.752-1.088v0zM684.16 245.824c-0.192 0.192-0.416 0.416-0.64 0.64-4.992 5.152-7.488 11.776-7.552 18.432v0l-0.032 3.2c-0.032 1.76-5.504-1.024-12.288-6.24l-61.28-47.264c-0.544-0.352-1.12-0.8-1.664-1.312-4.352-4.192-4.48-11.136-0.256-15.488 0.704-0.704 1.472-1.312 2.272-1.792l-0.064 0.032 62.656-45.6c6.912-5.024 12.48-7.392 12.416-5.28l-0.064 3.808c0.192 7.168 3.104 14.24 8.672 19.616 5.056 4.896 11.488 7.52 17.984 7.936h-0.064l118.56 1.6c0.928 0.096 1.824 0.48 2.528 1.152 0.8 0.768 1.216 1.76 1.28 2.752v0l-0.704 54.016c0 0.96-0.384 1.888-1.088 2.624-0.768 0.8-1.792 1.184-2.816 1.184v0l-118.56-1.632c-6.976-0.128-13.952 2.4-19.264 7.616l-0.032 0.032z" />
<glyph unicode="&#xe91a;" glyph-name="Center_Allign_Editor" d="M32 800h960c17.664 0 32 14.336 32 32s-14.336 32-32 32h-960c-17.664 0-32-14.336-32-32s14.336-32 32-32zM176 608c-17.664 0-32-14.336-32-32s14.336-32 32-32h672c17.664 0 32 14.336 32 32s-14.336 32-32 32h-672zM992 352h-960c-17.664 0-32-14.336-32-32s14.336-32 32-32h960c17.664 0 32 14.336 32 32s-14.336 32-32 32zM728 96h-432c-17.664 0-32-14.336-32-32s14.336-32 32-32h432c17.664 0 32 14.336 32 32s-14.336 32-32 32z" />
<glyph unicode="&#xe91b;" glyph-name="Channel" d="M816.64 430.336c8.384-48.256 49.952-84.48 99.968-84.48 56 0 101.376 45.408 101.376 101.376s-45.408 101.376-101.376 101.376c-50.016 0-91.584-36.224-99.872-83.872l-0.096-0.608h-120.64c-3.616 38.976-18.784 73.856-42.048 101.76l0.256-0.288 213.504 198.336c14.336-8.128 31.52-12.928 49.792-12.928 56.512 0 102.336 45.824 102.336 102.336s-45.824 102.336-102.336 102.336c-56.512 0-102.336-45.824-102.336-102.336 0-26.176 9.824-50.048 25.984-68.16l-0.096 0.096-210.752-195.744c-27.776 23.488-62.976 38.976-101.664 42.592l-0.736 0.064v120.736c48.224 8.384 84.448 49.92 84.448 99.936 0 55.968-45.376 101.344-101.344 101.344s-101.344-45.376-101.344-101.344c0-50.016 36.224-91.552 83.84-99.84l0.608-0.096v-120.736c-39.424-3.648-74.624-19.2-102.688-42.912l0.256 0.224-210.72 195.808c15.712 17.664 25.312 41.088 25.312 66.72 0 55.584-45.056 100.672-100.672 100.672s-100.672-45.056-100.672-100.672c0-55.584 45.056-100.672 100.672-100.672 17.888 0 34.688 4.672 49.248 12.832l-0.512-0.256 213.472-198.336c-23.008-27.616-38.208-62.496-41.76-100.736l-0.064-0.736h-120.64c-8.384 48.256-49.952 84.48-99.968 84.48-56 0-101.376-45.376-101.376-101.376s45.408-101.376 101.376-101.376c50.016 0 91.584 36.224 99.872 83.872l0.096 0.608h120.64c4.064-43.296 22.496-81.632 50.368-110.88l-0.064 0.064-202.784-202.848c-17.696 15.936-41.248 25.664-67.072 25.664-55.488 0-100.448-44.96-100.448-100.448s44.96-100.448 100.448-100.448c55.488 0 100.448 44.96 100.448 100.448 0 17.632-4.544 34.208-12.544 48.64l0.256-0.512 207.104 207.2c25.728-19.072 57.312-31.712 91.616-34.944l0.736-0.064v-120.672c-48.224-8.384-84.448-49.92-84.448-99.936 0-55.968 45.376-101.344 101.344-101.344s101.344 45.376 101.344 101.344c0 50.016-36.224 91.552-83.84 99.84l-0.608 0.096v120.672c39.392 3.68 74.624 19.2 102.656 42.912l-0.288-0.224 210.752-195.712c-15.744-17.696-25.344-41.12-25.344-66.784 0-55.584 45.056-100.672 100.672-100.672s100.672 45.056 100.672 100.672c0 55.584-45.056 100.672-100.672 100.672-17.856 0-34.624-4.64-49.152-12.8l0.512 0.256-213.568 198.336c23.008 27.616 38.208 62.496 41.76 100.736l0.064 0.736zM916.48 514.816c0 0 0 0 0 0 37.312 0 67.584-30.272 67.584-67.584s-30.272-67.584-67.584-67.584c-37.312 0-67.584 30.272-67.584 67.584v0c0 37.312 30.24 67.584 67.584 67.584v0zM916.48 920.352c0 0 0 0 0 0 37.312 0 67.584-30.272 67.584-67.584s-30.272-67.584-67.584-67.584c-37.312 0-67.584 30.272-67.584 67.584v0c0 37.312 30.24 67.584 67.584 67.584v0zM105.664 785.184c0 0 0 0-0.032 0-37.312 0-67.584 30.272-67.584 67.584s30.272 67.584 67.584 67.584c37.312 0 67.584-30.272 67.584-67.584v0c-0.032-37.312-30.272-67.552-67.552-67.584v0zM105.664 379.616c0 0 0 0-0.032 0-37.312 0-67.584 30.272-67.584 67.584s30.272 67.584 67.584 67.584c37.312 0 67.584-30.272 67.584-67.584v0c0-37.312-30.24-67.584-67.584-67.584v0zM105.664-25.92c0 0 0 0-0.032 0-37.312 0-67.584 30.272-67.584 67.584s30.272 67.584 67.584 67.584c37.312 0 67.584-30.272 67.584-67.584v0c0-37.312-30.272-67.552-67.584-67.584v0zM916.48 109.28c0 0 0 0 0 0 37.312 0 67.584-30.272 67.584-67.584s-30.272-67.584-67.584-67.584c-37.312 0-67.584 30.272-67.584 67.584v0c0.032 37.312 30.272 67.552 67.552 67.584v0zM443.488 852.768c0 37.312 30.272 67.552 67.584 67.552s67.584-30.24 67.584-67.584c0-37.312-30.24-67.552-67.552-67.584v0c-37.312 0.032-67.552 30.272-67.584 67.584v0zM578.656 41.696c0-37.312-30.272-67.552-67.584-67.552s-67.584 30.24-67.584 67.584 30.24 67.584 67.584 67.584v0c37.312 0 67.584-30.272 67.584-67.584v0zM511.072 295.136c0 0-0.032 0-0.064 0-84 0-152.064 68.096-152.064 152.064s68.096 152.064 152.064 152.064c84 0 152.064-68.096 152.064-152.064v0c0 0 0 0 0 0 0-83.968-68.064-152.032-152.032-152.064v0zM584.704 426.656c-10.848 10.912-24.128 19.392-38.912 24.64l-0.736 0.224c15.904 11.008 26.176 29.184 26.176 49.728 0 33.312-27.008 60.32-60.32 60.32s-60.32-27.008-60.32-60.32c0-20.544 10.272-38.72 25.984-49.6l0.192-0.128c-41.184-14.624-70.144-53.248-70.176-98.624v0h16.288c0 48.64 39.424 88.064 88.064 88.064s88.064-39.424 88.064-88.064v0h16.288c0 0.064 0 0.128 0 0.192 0 28.768-11.712 54.784-30.624 73.568v0zM510.944 457.216c0 0 0 0-0.032 0-24.32 0-44 19.712-44 44s19.712 44 44 44c24.32 0 44-19.712 44-44v0c-0.032-24.288-19.712-43.968-44-44v0z" />
<glyph unicode="&#xe91c;" glyph-name="Charge_Abri" d="M428.096 600.256c-14.752 0-26.816-12.064-26.816-26.784v-531.36c0-14.752 12.064-26.784 26.816-26.784h282.24c14.752 0 26.784 12.064 26.784 26.784v531.36c0 14.752-12.064 26.784-26.784 26.784h-282.24zM429.12 619.776h50.048v32.256c1.088 15.968 9.984 25.696 28.032 28.064h124.16c18.368-1.408 26.272-12.064 28.032-28.064v-32.256h49.984c26.048 0 47.36-21.312 47.36-47.36v-529.312c0-26.048-21.312-47.36-47.36-47.36h-280.256c-26.048 0-47.36 21.312-47.36 47.36v529.312c0 26.048 21.312 47.36 47.36 47.36v0zM649.6 629.504v21.216c0 5.216-4.256 9.472-9.472 9.472h-137.44c-5.216 0-9.472-4.256-9.472-9.472v-21.216h156.384zM667.296 353.312c-0.864 2.112-2.912 3.488-5.184 3.488-0.032 0-0.032 0-0.064 0h-68.672l68.096 107.648c0.576 0.864 0.864 1.888 0.864 2.912s-0.32 2.048-0.864 2.912c-1.12 1.792-3.072 2.912-5.216 2.912 0 0-0.032 0-0.032 0h-93.088c0 0-0.032 0-0.032 0-2.112 0-4.096-1.088-5.216-2.912l-87.296-174.592c-0.544-0.864-0.864-1.888-0.864-2.912s0.32-2.048 0.864-2.912c1.216-1.728 3.136-2.784 5.248-2.912h59.936l-65.184-155.36c-0.256-0.672-0.384-1.376-0.384-2.080 0-1.984 1.024-3.84 2.72-4.928 0.672-0.416 1.472-0.64 2.272-0.64 0.224 0 0.448 0.032 0.64 0.064 0.064 0 0.128 0 0.192 0 1.664 0 3.264 0.608 4.48 1.728l186.208 221.152c0.8 1.088 1.216 2.368 1.216 3.712 0 0.928-0.192 1.856-0.608 2.688v0zM496.224 163.008l53.536 128.032c0.256 0.672 0.384 1.344 0.384 2.048 0 1.12-0.352 2.24-0.992 3.168-1.184 1.312-2.848 2.144-4.64 2.336h-59.36l81.472 162.944h79.136l-68.672-107.68c-0.576-0.864-0.864-1.888-0.864-2.912s0.32-2.048 0.864-2.912c1.12-1.824 3.072-2.912 5.216-2.912 0 0 0.032 0 0.032 0h67.52l-153.6-182.144zM308.8 405.44l-191.328-4.512c-22.048 0.064-57.024 18.368-56.096 59.040 0.768 33.184 15.808 73.92 97.888 73.504 11.232 119.232 88.256 190.784 205.536 187.2 106.144 161.344 332.096 167.616 432.288 0.224 118.752-6.368 165.792-87.872 165.472-163.424-0.256-57.12-22.176-130.944-133.568-155.136v-42.688c120.192 20.352 177.248 111.072 176.256 197.856-0.704 62.336-38.336 158.912-142.272 191.648-12.544 3.968-26.944 5.184-41.664 6.912-113.216 204.096-381.344 180.128-477.984 0-116.928 5.216-207.456-70.784-215.36-193.568-82.816 1.056-108.544-65.728-109.248-102.496-0.704-37.12 19.488-99.168 101.44-101.824l188.64 0.064v47.232z" />
<glyph unicode="&#xe91d;" glyph-name="Charge_Account" d="M392.672 169.504c-16.352 0-29.632 13.248-29.632 29.632v0c0 16.416-13.312 29.76-29.76 29.76s-29.76-13.312-29.76-29.76v0c0.064-38.72 24.736-71.68 59.2-84.064l0.64-0.192v-26.080c0-16.416 13.312-29.76 29.76-29.76s29.76 13.312 29.76 29.76v26.272c35.136 12.544 59.808 45.504 59.808 84.256 0 49.28-39.968 89.248-89.248 89.248-0.224 0-0.448 0-0.704 0h0.032c-16.352 0-29.632 13.248-29.632 29.632s13.248 29.632 29.632 29.632c16.352 0 29.632-13.248 29.632-29.632v0c0-16.416 13.312-29.76 29.76-29.76s29.76 13.312 29.76 29.76v0c-0.064 38.496-24.448 71.296-58.624 83.84l-0.608 0.192v43.936c0 16.416-13.312 29.76-29.76 29.76s-29.76-13.312-29.76-29.76v-43.456c-35.136-12.544-59.808-45.504-59.808-84.256 0-49.28 39.968-89.248 89.248-89.248 0.064 0 0.128 0 0.192 0v0c16.416 0 29.76-13.312 29.76-29.76s-13.312-29.76-29.76-29.76v0zM125.504-11.2c68.32-31.36 148.192-49.664 232.352-49.664 12.352 0 24.608 0.384 36.768 1.184l-1.664-0.096c7.712-0.32 16.768-0.512 25.856-0.512 72.736 0 142.688 11.808 208.064 33.632l-4.64-1.344c16.448-19.488 40.896-31.776 68.192-31.776 0 0 0 0 0 0h240c0 0 0.032 0 0.064 0 49.248 0 89.184 39.936 89.184 89.184 0 22.944-8.672 43.84-22.88 59.648l0.064-0.096c14.176 15.68 22.848 36.576 22.848 59.488s-8.672 43.808-22.912 59.584l0.064-0.064c14.176 15.68 22.848 36.576 22.848 59.488s-8.672 43.808-22.912 59.584l0.064-0.064c14.144 15.712 22.816 36.64 22.816 59.584 0 49.248-39.936 89.184-89.184 89.184-0.032 0-0.032 0-0.064 0h-240c-2.88 0-5.76 0-8.448-0.416-29.12 35.296-63.264 65.12-101.664 88.736l-1.76 1.024c14.080 15.712 22.688 36.544 22.688 59.424 0 35.456-20.704 66.080-50.688 80.448l-0.544 0.224 49.6 152.128c0.96 2.784 1.504 6.016 1.504 9.344 0 16.352-13.248 29.632-29.632 29.632-0.064 0-0.128 0-0.224 0h-94.336c-12.608 34.976-45.504 59.52-84.128 59.52s-71.52-24.544-83.936-58.88l-0.192-0.608h-94.272c-0.064 0-0.128 0-0.192 0-16.352 0-29.632-13.248-29.632-29.632 0-3.36 0.544-6.56 1.568-9.568l-0.064 0.224 49.632-152.128c-30.496-14.592-51.168-45.216-51.168-80.672 0-22.912 8.64-43.776 22.816-59.552l-0.064 0.096c-121.216-74.976-201.248-206.464-203.104-356.768v-0.288c-0.384-4.96-0.608-10.752-0.608-16.576 0-87.328 48.832-163.264 120.64-202.016l1.216-0.608zM960.288 267.488c0-16.352-13.248-29.632-29.632-29.632h-240.16c-16.416 0-29.76 13.312-29.76 29.76s13.312 29.76 29.76 29.76h240c0.032 0 0.096 0 0.128 0 16.352 0 29.632-13.248 29.632-29.632 0-0.096 0-0.192 0-0.256v0zM960.288 148.512c0-16.352-13.248-29.632-29.632-29.632v0h-240.16c-16.416 0-29.76 13.312-29.76 29.76s13.312 29.76 29.76 29.76v0h240c0.032 0 0.096 0 0.128 0 16.352 0 29.632-13.248 29.632-29.632 0-0.096 0-0.192 0-0.256v0zM930.656-0.288h-240.16c-16.416 0-29.76 13.312-29.76 29.76s13.312 29.76 29.76 29.76v0h240c16.416 0 29.76-13.312 29.76-29.76s-13.312-29.76-29.76-29.76v0zM960.288 386.528c0-16.352-13.248-29.632-29.632-29.632h-240.16c-16.416 0-29.76 13.312-29.76 29.76s13.312 29.76 29.76 29.76h240c0.032 0 0.096 0 0.128 0 16.352 0 29.632-13.248 29.632-29.632 0-0.096 0-0.192 0-0.256v0zM511.104 594.784h-236.96c-16.416 0-29.76 13.312-29.76 29.76s13.312 29.76 29.76 29.76h237.856c16.416 0 29.76-13.312 29.76-29.76s-13.312-29.76-29.76-29.76h-0.832zM333.376 836.768c16.352 0 29.632 13.248 29.632 29.632v0c0 16.416 13.312 29.76 29.76 29.76s29.76-13.312 29.76-29.76v0-59.424c0-16.416 13.312-29.76 29.76-29.76s29.76 13.312 29.76 29.76v29.632h48.288l-40.128-122.976h-194.656l-40.064 123.104zM279.776 535.264h226.304c47.456-20.544 87.552-49.92 119.872-86.336l0.32-0.352c-15.616-16-25.248-37.888-25.248-62.048 0-22.944 8.672-43.84 22.944-59.584l-0.064 0.064c-14.176-15.68-22.848-36.576-22.848-59.488s8.672-43.808 22.912-59.584l-0.064 0.064c-14.176-15.68-22.848-36.576-22.848-59.488s8.672-43.808 22.912-59.584l-0.064 0.064c-14.144-15.68-22.816-36.544-22.816-59.424 0-0.032 0-0.032 0-0.064v0c0-0.576 0-1.216 0-1.824-54.624-18.048-117.504-28.48-182.816-28.48-8.96 0-17.888 0.192-26.752 0.576l1.28-0.032c-10.176-0.704-22.080-1.12-34.048-1.12-74.272 0-144.864 15.712-208.672 43.968l3.296-1.312c-54.304 29.056-90.624 85.376-90.624 150.208 0 5.824 0.288 11.552 0.864 17.248l-0.064-0.704c1.472 145.632 88.928 270.496 213.984 326.304l2.304 0.928zM932.448 712.576h-115.008v115.008c0.064 0.416 0.096 0.864 0.096 1.344 0 5.888-4.768 10.656-10.656 10.656s-10.656-4.768-10.656-10.656c0-0.48 0.032-0.928 0.096-1.408v0.064-115.008h-115.168c-0.416 0.064-0.864 0.096-1.344 0.096-5.888 0-10.656-4.768-10.656-10.656s4.768-10.656 10.656-10.656c0.48 0 0.928 0.032 1.408 0.096h114.944v-115.168c-0.064-0.416-0.096-0.864-0.096-1.344 0-5.888 4.768-10.656 10.656-10.656s10.656 4.768 10.656 10.656c0 0.48-0.032 0.928-0.096 1.408v-0.064 115.008h115.168c0.416-0.064 0.864-0.096 1.344-0.096 5.888 0 10.656 4.768 10.656 10.656s-4.768 10.656-10.656 10.656c-0.48 0-0.928-0.032-1.408-0.096h0.064z" />
<glyph unicode="&#xe91e;" glyph-name="Charge_Request" d="M711.808-49.952h-671.136c-8.096 0-14.656 6.56-14.656 14.656v0 69.696c0 8.096 6.56 14.656 14.656 14.656v0h671.136c8.096 0 14.656-6.56 14.656-14.656v0-69.664c0 0 0-0.032 0-0.032 0-8.096-6.56-14.656-14.656-14.656 0 0 0 0 0 0v0zM55.328-20.64h641.728v40.352h-641.728zM232.96 336.224h-129.568c-8.096 0-14.656 6.56-14.656 14.656v0 64.832c0 8.096 6.56 14.656 14.656 14.656v0h129.568c8.096 0 14.656-6.56 14.656-14.656v0-64.832c0 0 0 0 0 0 0-8.096-6.56-14.656-14.624-14.656v0zM118.048 365.536h100.256v35.488h-100.256zM232.96 19.712h-129.568c-8.096 0-14.656 6.56-14.656 14.656v0 59.488c0 8.096 6.56 14.656 14.656 14.656v0h129.568c8.096 0 14.656-6.56 14.656-14.656v0-59.488c0 0 0 0 0-0.032 0-8.096-6.56-14.656-14.624-14.656v0zM118.048 49.056h100.256v30.144h-100.256zM206.912 79.232h-77.408c-8.096 0-14.656 6.56-14.656 14.656v0 256.992c0 8.096 6.56 14.656 14.656 14.656h77.408c8.096 0 14.656-6.56 14.656-14.656v0-256.992c0 0 0 0 0 0 0-8.096-6.56-14.656-14.656-14.656 0 0-0.032 0-0.032 0v0zM144.16 108.576h48.096v227.616h-48.032zM440.928 336.224h-129.536c-8.096 0-14.656 6.56-14.656 14.656v0 64.832c0 8.096 6.56 14.656 14.656 14.656v0h129.568c8.096 0 14.656-6.56 14.656-14.656v0-64.832c0 0 0 0 0 0 0-8.096-6.56-14.656-14.656-14.656 0 0 0 0-0.032 0v0zM326.048 365.536h100.256v35.488h-100.256zM440.928 19.712h-129.536c-8.096 0-14.656 6.56-14.656 14.656v0 59.488c0 8.096 6.56 14.656 14.656 14.656v0h129.568c8.096 0 14.656-6.56 14.656-14.656v0-59.488c0 0 0 0 0-0.032 0-8.096-6.56-14.656-14.656-14.656 0 0 0 0-0.032 0v0zM326.048 49.056h100.256v30.144h-100.256zM414.688 79.232h-77.312c-8.096 0-14.656 6.56-14.656 14.656v0 256.992c0 8.096 6.56 14.656 14.656 14.656h77.312c8.096 0 14.656-6.56 14.656-14.656v0-256.992c0-8.096-6.56-14.656-14.656-14.656v0zM351.968 108.576h48.096v227.616h-47.968zM648.864 336.224h-129.6c-8.096 0-14.656 6.56-14.656 14.656v0 64.832c0 8.096 6.56 14.656 14.656 14.656v0h129.568c8.096 0 14.656-6.56 14.656-14.656v0-64.832c0 0 0 0 0 0 0-8.096-6.56-14.656-14.624-14.656v0zM533.952 365.536h100.256v35.488h-100.256zM648.864 19.712h-129.6c-8.096 0-14.656 6.56-14.656 14.656v0 59.488c0 8.096 6.56 14.656 14.656 14.656v0h129.568c8.096 0 14.656-6.56 14.656-14.656v0-59.488c0 0 0 0 0-0.032 0-8.096-6.56-14.656-14.624-14.656v0zM533.952 49.056h100.256v30.144h-100.256zM622.912 79.232h-77.44c-8.096 0-14.656 6.56-14.656 14.656v0 256.992c0 8.096 6.56 14.656 14.656 14.656v0h77.44c8.096 0 14.656-6.56 14.656-14.656v0-256.992c0-8.096-6.56-14.656-14.656-14.656v0zM560.128 108.576h48.096v227.616h-48.16zM737.888 400.992h-723.232c0 0-0.032 0-0.032 0-8.096 0-14.656 6.56-14.656 14.656 0 4.448 1.984 8.416 5.088 11.104h0.032l361.6 312.32c2.56 2.24 5.92 3.584 9.6 3.584s7.040-1.344 9.632-3.584h-0.032l361.632-312.32c3.136-2.688 5.088-6.688 5.088-11.104 0-8.096-6.56-14.656-14.656-14.656 0 0-0.032 0-0.032 0v0zM54.016 430.336h644.256l-322.144 278.24zM237.888 736.96c0 0 0 0 0 0-8.064 0-14.592 6.528-14.656 14.56v81.632c0.032 31.136 25.28 56.352 56.416 56.384h176.128c8.096 0 14.656-6.56 14.656-14.656s-6.56-14.656-14.656-14.656v0h-176.128c-14.944 0-27.040-12.128-27.072-27.040v-81.632c-0.064-8.064-6.592-14.56-14.656-14.56 0 0 0 0-0.032 0v0zM395.968 807.712c-8.064 0.032-14.592 6.592-14.592 14.656 0 4.352 1.888 8.256 4.896 10.944l47.232 41.536-47.232 41.568c-3.296 2.72-5.376 6.784-5.376 11.328 0 8.096 6.56 14.656 14.656 14.656 3.904 0 7.424-1.536 10.048-4v0l59.744-52.512c3.040-2.688 4.96-6.624 4.96-11.008s-1.92-8.288-4.96-10.976h-0.032l-59.744-52.512c-2.56-2.272-5.952-3.648-9.664-3.648v0zM967.616 154.464h-176.192c-8.096 0-14.656 6.56-14.656 14.656s6.56 14.656 14.656 14.656v0h176.192c14.944 0.032 27.040 12.128 27.040 27.040v81.568c0 8.096 6.56 14.656 14.656 14.656s14.656-6.56 14.656-14.656v0-81.568c-0.032-31.136-25.248-56.352-56.384-56.384v0zM851.264 101.984c0 0 0 0 0 0-3.712 0-7.104 1.376-9.696 3.648v0l-59.744 52.512c-3.040 2.688-4.96 6.624-4.96 11.008s1.92 8.288 4.96 10.976v0l59.744 52.512c2.528 2.176 5.888 3.52 9.504 3.52 8.096 0 14.656-6.56 14.656-14.656 0-4.288-1.856-8.16-4.8-10.848v0l-47.232-41.472 47.264-41.504c3.008-2.688 4.896-6.592 4.896-10.944 0-8.064-6.528-14.624-14.592-14.656v0zM839.712 779.552c-8.992 0.32-16.16 7.712-16.16 16.768s7.168 16.416 16.128 16.768h0.032c7.2-0.512 13.568-3.776 18.080-8.736l0.032-0.032c3.008-2.912 7.136-4.704 11.648-4.704 9.248 0 16.768 7.488 16.768 16.768 0 4.736-1.952 8.992-5.088 12.032v0c-6.752 6.752-15.008 12.032-24.192 15.296l-0.448 0.128v19.488c0 9.248-7.488 16.768-16.768 16.768s-16.768-7.488-16.768-16.768v0-19.648c-19.648-7.136-33.44-25.632-33.44-47.392 0-27.744 22.464-50.24 50.208-50.272v0c8.992-0.32 16.16-7.712 16.16-16.768s-7.168-16.416-16.128-16.768h-0.032c-9.024 0.928-16.768 5.664-21.696 12.576l-0.064 0.096c-3.104 3.904-7.84 6.4-13.152 6.4-9.248 0-16.736-7.488-16.736-16.736 0-4.32 1.632-8.256 4.32-11.232v0c7.936-9.792 18.304-17.312 30.176-21.664l0.48-0.16v-19.552c0-9.248 7.488-16.736 16.736-16.736s16.736 7.488 16.736 16.736v19.776c19.648 7.136 33.44 25.632 33.44 47.392 0 27.744-22.464 50.24-50.208 50.272v0zM839.712 947.168c-0.032 0-0.032 0-0.064 0-101.824 0-184.352-82.528-184.352-184.352s82.528-184.352 184.352-184.352c101.824 0 184.352 82.528 184.352 184.352v0c-0.096 101.76-82.528 184.192-184.256 184.352v0zM839.712 612c-0.032 0-0.032 0-0.064 0-83.296 0-150.816 67.52-150.816 150.816s67.52 150.816 150.816 150.816c83.296 0 150.816-67.52 150.816-150.816v0c-0.096-83.232-67.52-150.72-150.752-150.816v0z" />
<glyph unicode="&#xe91f;" glyph-name="Check" d="M1018.624 742.080l-83.712 84.288c-3.296 3.424-7.968 5.568-13.088 5.568-0.064 0-0.16 0-0.224 0v0c-0.16 0-0.352 0-0.544 0-5.024 0-9.568-2.144-12.768-5.568v0l-580.16-572.416-211.2 206.784c-3.392 3.456-8.096 5.6-13.312 5.6s-9.92-2.144-13.312-5.6v0l-84.672-83.2c-3.52-3.328-5.696-8.064-5.696-13.28s2.176-9.952 5.696-13.28v0l266.304-260.8c14.112-15.008 33.568-24.864 55.328-26.528l0.288-0.032c21.664 1.92 40.832 11.328 55.168 25.6v0h0.448l635.776 625.92c3.232 3.488 5.216 8.16 5.216 13.312 0 5.312-2.112 10.112-5.536 13.632v0z" />
<glyph unicode="&#xe920;" glyph-name="Choose_File" horiz-adv-x="1056" d="M907.648 706.912h-323.808c-0.096 0-0.192 0-0.288 0-13.408 0-25.568 5.216-34.624 13.728l0.032-0.032-101.024 99.968c-23.456 21.376-54.752 34.464-89.12 34.464-0.736 0-1.44 0-2.176-0.032h-219.968c-1.056 0.032-2.304 0.064-3.552 0.064-66.24 0-120.224-52.576-122.464-118.304v-576.544c2.272-65.888 56.224-118.464 122.464-118.464 1.248 0 2.496 0.032 3.744 0.064h771.296c0.928-0.032 2.016-0.032 3.072-0.032 66.336 0 120.352 52.736 122.4 118.592v428.192c-2.304 65.888-56.256 118.4-122.464 118.4-1.248 0-2.496-0.032-3.744-0.064h0.192zM956.576 160.416c-0.736-25.664-21.728-46.208-47.52-46.208-0.352 0-0.736 0-1.088 0h-771.264c-0.416 0-0.864-0.032-1.344-0.032-25.728 0-46.688 20.416-47.584 45.92v576.448c0.928 25.6 21.888 46.016 47.616 46.016 0.448 0 0.928 0 1.376-0.032h222.304c0.064 0 0.128 0 0.192 0 12.896 0 24.672-4.864 33.6-12.832l-0.064 0.032 100.48-99.488c23.392-22.272 55.136-35.968 90.080-35.968 0.16 0 0.288 0 0.448 0h323.776c0.416 0 0.896 0.032 1.408 0.032 25.632 0 46.56-20.288 47.584-45.664v-428.224z" />
<glyph unicode="&#xe921;" glyph-name="City" d="M720.128 818.656c2.528 4.032 6.88 7.904 13.664 7.904 7.2 0 21.184-2.144 33.76-4.064l1.728-0.256c5.888-0.896 11.584-1.76 16.48-2.432 5.536-0.768 9.504-1.152 11.552-1.152h0.864l0.832-0.192c14.464-3.104 28.16-9.12 40.224-17.696 4.608-2.784 7.072-6.88 8.448-10.624 1.248-3.36 1.824-6.944 2.24-9.472 0.032-0.192 0.064-0.384 0.096-0.576s0.064-0.384 0.096-0.576c0.224 0.256 0.48 0.512 0.768 0.832 2.144 2.496 4.416 5.888 6.848 9.696 0.352 0.512 0.672 1.056 1.024 1.6 2.016 3.168 4.192 6.592 6.272 9.28 1.216 1.6 2.688 3.296 4.384 4.672 1.536 1.28 4.288 3.104 7.968 3.104 2.336 0 5.312-0.672 7.712-3.072 2.24-2.24 2.88-4.928 3.104-6.656 0.384-3.168-0.32-6.88-0.8-9.44-0.096-0.608-0.224-1.184-0.352-1.792-1.088-5.664-2.208-11.52-1.6-17.504 0.448-4.416 0.48-8.224 0.48-11.424 0-0.832 0-1.6-0.032-2.304-0.032-2.176-0.032-3.84 0.064-5.472 0.192-3.488 0.864-5.92 3.936-9.312 1.888-2.080 5.344-2.944 11.232-2.88 1.248 0.032 2.464 0.064 3.744 0.128h0.32c1.312 0.064 2.784 0.128 4.128 0.096 1.28 0 3.040-0.096 4.768-0.576 1.696-0.48 4.8-1.728 6.528-5.12 1.664-3.232 1.248-6.752-0.416-9.408-1.312-2.080-3.136-3.328-4.224-4-2.336-1.376-5.312-2.4-7.712-3.168-1.952-0.608-4.128-1.184-6.080-1.728-0.576-0.16-1.152-0.32-1.664-0.448-2.528-0.704-4.352-1.248-5.44-1.696-2.208-0.928-6.080-3.36-8.032-7.264-1.632-3.296-2.816-9.504 3.776-20.48 6.944-11.552 17.12-21.792 28.992-31.584 8.416-6.944 17.344-13.408 26.368-19.936 3.808-2.752 7.648-5.536 11.456-8.352 12.64-9.344 16.128-9.888 16.864-9.92 0.128 0 0.32 0 0.736 0.064 0.032 0 0.096 0 0.192 0.032 0.448 0.064 1.504 0.224 2.208 0.288 2.688 0.256 5.6 0.032 9.376-1.344 2.88-1.088 5.088-1.344 7.936-1.696 1.28-0.16 2.688-0.352 4.352-0.608 5.248-0.864 11.040-2.688 16.352-8.704l0.192-0.192 0.16-0.224c5.216-6.752 8.064-15.072 8.064-23.616 0-8.32-2.688-16.384-7.616-23.040-1.28-2.4-2.368-4.544-3.424-6.688-0.672-1.312-1.312-2.624-2.016-3.968-1.824-3.52-3.776-7.072-6.24-10.464-5.184-7.104-12.128-12.768-23.744-18.144-0.8-0.384-1.184-0.672-1.344-0.832 0-0.128 0-0.32 0.064-0.672 0.352-2.336 1.952-5.28 4.384-9.856l0.064-0.16c1.056-1.984 2.336-4.384 3.168-6.72 0.768-2.112 1.824-5.728 0.736-9.568-1.344-4.672-5.056-7.2-8.736-8.32-3.36-0.992-7.36-1.088-11.712-0.768-7.424 0.576-10.368-0.448-11.52-1.12-0.896-0.512-1.632-1.312-2.816-4.224-0.224-0.512-0.448-1.12-0.704-1.824-1.056-2.752-2.56-6.752-4.896-10.4-3.2-5.024-7.968-9.728-15.584-13.472-8.48-4.16-17.28-3.968-25.088-2.464-6.464 1.248-12.992 3.616-18.592 5.6-0.992 0.352-1.952 0.704-2.88 1.024-6.72 2.368-11.488 3.712-15.040 3.584-1.568-0.064-2.56-0.384-3.328-0.864s-1.76-1.376-2.848-3.424c-2.56-4.832-6.4-8.096-11.168-9.696-4.48-1.536-9.152-1.408-13.312-0.704-7.776 1.28-16.48 4.992-23.84 8.128-0.352 0.16-0.672 0.288-1.024 0.416-8.32 3.552-14.624 6.080-19.072 6.496-1.44 0.128-2.048-0.032-2.24-0.096-0.128-0.192-0.48-0.768-0.704-2.176l-0.064-0.384c-0.128-0.608-1.12-3.872-2.272-7.648-1.248-4.064-2.848-9.376-4.448-14.688s-3.2-10.528-4.416-14.464l-1.824-6.048c-0.896-5.6 0.192-8.608 1.568-10.656 1.696-2.528 4.544-4.64 8.992-7.456 0.64-0.384 1.312-0.8 2.016-1.248 8.128-4.96 20.256-12.352 21.664-29.088 0.576-7.040 0.576-12.032 0.192-15.84-0.384-3.968-1.12-6.432-1.664-8.192-0.448-1.472-0.448-1.6-0.448-1.952v-0.032c0.032-0.736 0.288-2.4 1.568-6.336 1.888-5.856 5.12-8.736 9.504-12.704l0.192-0.16c4.608-4.128 10.72-9.696 12.064-20.384 1.344-10.464-2.464-17.248-6.592-22.304-0.928-1.152-1.92-2.272-2.72-3.2-0.864-0.992-1.6-1.824-2.24-2.656-1.312-1.632-2.080-2.944-2.528-4.288-0.64-1.888-0.768-2.912-0.768-3.36l0.128-0.224 0.032-0.032c0.16-0.288 0.64-1.12 0.96-2.144 0.416-1.248 0.672-2.816 0.416-4.576-0.256-1.664-0.864-3.040-1.504-4.064-0.704-1.152-1.696-2.368-3.104-3.296 0 0 0 0 0 0 2.176-2.048 3.328-4.736 4-7.264 0.96-3.584 2.208-8.448 2.528-13.28 0.32-4.672-0.064-10.848-3.904-15.936-1.344-1.792-3.168-3.808-5.76-5.088-2.88-1.44-5.664-1.44-7.936-1.088-1.792 0.288-3.712 0.896-5.184 1.376l-0.288 0.096c-1.632 0.544-3.424 1.12-5.632 1.664-10.112 1.792-19.68 5.792-28.064 11.744-5.888 3.968-9.632 8.832-12.16 12.48-1.824-3.36-4.928-7.136-10.624-9.248-4.384-1.632-8.64-1.28-11.904-0.608-2.528 0.512-5.152 1.408-7.104 2.048-0.448 0.16-0.864 0.288-1.216 0.416-0.576 0.192-1.088 0.352-1.536 0.48-1.728-9.728-0.096-19.808 4.672-28.576l0.096-0.16 0.064-0.16c16.128-32.992 30.528-66.816 43.168-101.312l0.16-0.384 0.096-0.416c0.96-3.744 1.504-7.072 1.568-9.984 0.096-2.816-0.256-5.888-1.696-8.64-1.632-3.104-4.32-5.152-7.52-5.984-2.816-0.704-5.472-0.288-7.296 0.192-3.68 0.992-7.136 3.104-9.248 4.544-1.152 0.768-2.144 1.504-2.848 2.048-0.224 0.16-0.416 0.32-0.576 0.448-0.096 0.096-0.192 0.16-0.288 0.224l-0.256 0.192-0.096 0.096c0 0 0 0 5.216 6.208l-5.216-6.208-1.696 1.44-0.736 2.080v0.032l-0.16 0.48c-0.128 0.32-0.288 0.832-0.544 1.472-0.48 1.28-1.184 3.168-2.112 5.472-1.824 4.64-4.448 10.944-7.68 17.728s-6.944 13.952-11.008 20.32c-4.096 6.464-8.224 11.616-12.096 14.816l-0.384 0.32-0.352 0.352c-1.888 1.984-4.16 3.584-6.72 4.672s-5.248 1.632-7.968 1.632-5.472-0.544-8-1.632c-2.528-1.088-4.8-2.656-6.688-4.672l-0.608-0.64-0.704-0.48c-0.352-0.256-0.352-0.256-0.352-0.352 0-0.032 0-0.032 0-0.096-0.064-0.736 0.128-2.144 0.928-4.64 0.192-0.544 0.448-1.312 0.736-2.176 0.64-1.888 1.472-4.224 1.92-6.016 0.672-2.656 1.664-7.584-0.928-12.192-0.928-1.696-2.208-3.84-3.712-5.728-1.344-1.664-3.872-4.416-7.744-5.376-4.8-1.184-8.864 0.896-11.584 3.648-2.464 2.496-4.416 6.048-6.112 10.144-2.976 7.136-4.64 16.032-6.208 24.544-0.32 1.664-0.608 3.296-0.928 4.928-2.048 10.464-4.48 20.896-9.312 30.432-4.768 9.44-8.96 12.8-12.032 14.624-1.28 0.768-2.304 1.248-3.552 1.824-0.608 0.288-1.312 0.608-2.112 0.992-2.144 1.056-4.928 2.592-7.328 5.344-4.8 5.472-2.464 11.744-1.216 14.368 0.736 1.536 1.632 2.976 2.336 4.128 0.224 0.352 0.416 0.64 0.608 0.96 0.512 0.832 0.96 1.504 1.376 2.208 0.096 0.192 0.192 0.352 0.288 0.512-0.064 0.032-0.128 0.032-0.192 0.064-6.624 2.528-14.432 3.424-24.416 3.104-10.048-0.288-21.696-1.76-35.968-3.584-9.568-1.216-14.368-5.824-19.808-10.976-0.864-0.8-1.696-1.632-2.624-2.464-3.040-2.816-7.68-6.72-14.144-7.136-6.528-0.448-12.64 2.752-18.688 7.776-6.208 5.152-10.176 10.080-13.024 15.072-2.4 4.192-3.936 8.32-5.216 11.808-0.192 0.48-0.352 0.96-0.544 1.44-1.44 3.872-2.848 7.232-5.28 10.848s-6.144 7.712-12.448 12.576c-19.616 15.104-86.432 60.672-130.784 90.944-17.152 11.68-30.912 21.088-37.376 25.6-6.784 4.736-10.912 10.048-12.608 16.096-1.664 5.824-0.736 11.168 0.096 14.976 0.256 1.12 0.448 2.080 0.64 2.912 0.576 2.464 0.896 3.84 0.832 5.216-0.032 0.736-0.064 1.504-1.888 2.848-2.944 2.176-10.688 6.112-22.656 11.68-6.528 3.008-13.92 6.368-21.984 9.984-6.4 2.88-13.216 5.952-20.352 9.216-31.84 14.528-69.024 32.288-96.288 50.176s-35.232 28.8-39.104 38.944c-0.608 1.632-1.152 3.296-1.568 4.672-0.16 0.48-0.288 0.896-0.416 1.28-0.544 1.632-1.024 2.912-1.664 4.128-1.216 2.304-3.52 5.344-9.504 9.76-11.968 8.768-21.408 10.848-29.536 11.968-1.088 0.16-2.304 0.288-3.52 0.448-3.072 0.352-6.4 0.768-9.28 1.408-4.48 0.96-9.12 2.688-13.408 6.304-3.584 3.040-6.624 6.72-7.584 11.264-1.056 4.96 0.672 9.088 2.912 12.032 2.048 2.688 4.8 4.768 6.976 6.272 1.152 0.8 2.304 1.536 3.36 2.176l0.32 0.192c0.96 0.608 1.76 1.12 2.56 1.632 3.36 2.24 6.784 3.104 10.208 2.976 2.88-0.096 5.504-0.96 7.136-1.472 0.064-0.032 0.128-0.032 0.192-0.064 3.456-1.12 4.864-1.472 7.264-0.576 3.2 1.184 4.704 2.784 6.688 5.312 0.192 0.224 0.384 0.48 0.608 0.768 2.080 2.656 5.248 6.72 10.848 9.344 2.4 1.12 4.672 1.984 6.944 2.304 2.528 0.384 4.576 0.096 6.368-0.384 1.056-0.288 1.696-0.544 2.176-0.704 0.896-0.32 1.248-0.448 2.72-0.448 1.632 0 4.736-0.16 7.36-2.080 1.376 0.352 3.2 0.896 5.696 1.696 9.216 2.912 19.52 7.296 30.272 11.936l0.448 0.192c10.432 4.48 21.344 9.152 31.328 12.352 7.264 2.304 10.72 3.904 13.088 4.96 0.64 0.288 1.216 0.544 1.76 0.768 1.312 0.544 4.384 1.76 8.032 0.416 1.312-0.48 2.336-1.184 2.848-1.536 0.288-0.192 0.736-0.512 1.12-0.8 0.192-0.16 0.384-0.288 0.512-0.384 2.688-1.92 4.16-4.768 4.352-7.776 0.16-2.528-0.576-4.672-1.088-5.92-0.576-1.376-1.28-2.656-1.824-3.616-0.256-0.448-0.48-0.8-0.672-1.152-0.032-0.064-0.096-0.128-0.128-0.224 9.6-2.016 19.456-2.24 29.088-0.64-0.192 0.384-0.352 0.8-0.512 1.216-0.736 2.080-1.056 4.704-0.064 7.52 0.96 2.656 2.752 4.576 4.512 5.888 5.568 4.192 12.032 4.544 16.224 4.768 0.48 0.032 0.928 0.064 1.344 0.064 4.512 0.288 8.512 0.832 13.216 3.968 3.456 2.304 4.288 4.576 5.856 9.024 0.16 0.448 0.32 0.896 0.48 1.408 0.928 2.592 2.336 6.176 5.216 9.344 3.040 3.328 7.104 5.568 12.352 6.88 10.016 2.496 18.4 1.024 26.016-1.536 3.328-1.12 6.624-2.496 9.76-3.776 0.32-0.128 0.64-0.256 0.96-0.384 3.488-1.44 6.912-2.816 10.592-4 7.744-2.496 12.16-3.968 15.456-5.792 2.496-1.408 4.576-3.2 6.656-4.992 0.672-0.576 1.344-1.152 2.016-1.728 2.624-2.208 4.48-4.544 5.696-7.040 1.088-2.176 1.536-4.192 1.792-5.536 0.096 0 0.192-0.032 0.256-0.032 0.192-0.032 0.352-0.032 0.48-0.032 0 0.896-0.128 1.76-0.384 3.2-0.128 0.672-0.256 1.504-0.416 2.496-0.544 3.68-0.832 8.16 0.96 13.984 4.544 18.24 12.16 35.584 22.528 51.264l0.608 0.928 0.832 0.736c1.504 1.312 3.712 2.944 6.528 3.52 3.584 0.736 6.912-0.48 9.184-2.752 1.792-1.792 2.688-3.936 3.136-5.184 0.512-1.376 0.896-2.88 1.184-4.064 0.704-2.72 1.184-4.576 1.888-5.984 0.32-0.64 0.544-0.896 0.64-0.992 0 0 0 0 0 0 5.472-1.6 9.376-2.528 12.48-2.336 2.336 0.16 4.32 0.928 6.368 3.968 0.416 0.64 0.608 1.216 0.448 2.496-0.192 1.536-0.704 3.168-1.6 5.92-0.128 0.352-0.224 0.704-0.352 1.088-2.016 6.24-4.8 15.744 1.12 26.56 4.064 7.392 8.96 16.288 15.36 22.304 3.328 3.136 7.392 5.824 12.352 7.072 5.024 1.28 10.304 0.864 15.712-1.184 6.496-2.464 10.976-7.872 14.112-12.96 3.232-5.216 5.824-11.36 8-16.832 0.512-1.248 0.992-2.464 1.44-3.616 0.992-2.528 1.92-4.896 2.848-7.008 0.16 3.296 0.416 7.104 1.088 10.432 0.416 2.176 1.088 4.64 2.336 6.912 1.248 2.336 3.328 4.864 6.656 6.304 5.792 2.464 10.912 0.544 14.336-1.856 3.072-2.144 5.696-5.312 7.552-7.52l0.384-0.448c1.536-1.824 2.72-3.264 3.808-4.352 0.064 0.416 0.128 0.896 0.192 1.44l0.096 0.672c0.32 2.304 0.864 6.368 2.88 9.824 1.152 1.952 2.816 3.84 5.248 5.184s5.024 1.888 7.648 1.888h0.128c10.528-0.16 20.736 3.36 28.928 9.92 0.512 0.672 1.024 1.216 1.44 1.6 0.864 0.832 1.824 1.6 2.752 2.304 1.888 1.408 4.256 2.88 6.848 4.384 5.184 2.976 11.84 6.336 18.784 9.568 13.824 6.464 29.536 12.896 38.144 15.552l0.736 0.224 0.768 0.096c26.656 2.944 53.632 0.672 79.424-6.624 0.672 0.928 1.344 2.656 2.4 5.92 0.096 0.256 0.16 0.512 0.256 0.768 0.896 2.784 2.144 6.72 4.16 9.92zM81.92 627.968c0 0 0 0 0.032 0h-0.032zM88.672 622.336c0.064-0.32 0.064-0.416 0-0.096 0 0 0 0.032 0 0.032s0 0.032 0 0.064zM754.912 88.736c0.32-0.224 0.64-0.48 1.024-0.704-0.128 0.608-0.288 1.28-0.448 2.016-12.416 33.76-26.528 66.88-42.304 99.2-7.2 13.28-9.088 28.8-5.344 43.456l0.224 0.896 0.416 0.832c1.088 2.112 2.656 4.032 4.8 5.44s4.416 1.984 6.464 2.112c3.68 0.256 7.328-0.896 9.6-1.632 0.672-0.224 1.312-0.416 1.888-0.608 1.824-0.608 3.232-1.056 4.704-1.376 1.792-0.352 2.624-0.224 3.008-0.096 1.344 0.512 1.92 1.184 2.848 3.68 0.032 0.128 0.096 0.288 0.192 0.48 0.384 1.12 1.184 3.296 2.144 4.928 0.704 1.184 1.824 2.656 3.616 3.84 1.888 1.248 4 1.792 6.112 1.792 4.544 0 7.648-2.496 9.44-4.352 1.536-1.6 2.944-3.68 4-5.248 0.096-0.128 0.192-0.288 0.288-0.416 2.496-3.648 4.928-7.072 8.896-9.728l0.192-0.128c6.464-4.64 13.92-7.744 21.792-9.088l0.576-0.128c2.88-0.704 5.184-1.472 6.912-2.016l0.032-0.032c0.608-0.192 1.088-0.352 1.472-0.48 0.288 0.704 0.576 2.080 0.416 4.576-0.192 2.784-0.896 5.92-1.76 9.152-0.384 0.096-0.832 0.224-1.28 0.384-1.248 0.48-2.528 1.216-3.712 2.336-0.992 0.96-1.76 2.048-2.304 3.136-1.6 2.72-2.464 5.824-2.464 9.024 0 3.36 0.96 6.592 2.688 9.408l0.192 0.288 0.224 0.288c1.12 1.504 2.72 2.784 4.832 3.456 0.032 0 0.096 0.032 0.128 0.032 0.16 2.144 0.704 4.48 1.568 7.040 1.28 3.872 3.328 6.88 5.248 9.248 0.928 1.184 1.92 2.272 2.752 3.232 0.864 0.992 1.6 1.824 2.304 2.688 2.368 2.944 3.712 5.408 3.104 10.080-0.576 4.448-2.528 6.528-6.816 10.368-0.192 0.16-0.384 0.352-0.608 0.544-4.384 3.904-10.432 9.312-13.696 19.392-1.408 4.32-2.208 7.68-2.336 10.688-0.128 3.264 0.576 5.6 1.088 7.2l0.032 0.16v0.032c0.416 1.344 0.8 2.656 1.056 5.024 0.256 2.528 0.32 6.496-0.224 12.896-0.704 8.32-5.792 11.488-14.88 17.184-0.416 0.256-0.8 0.512-1.216 0.768-4.416 2.784-10.016 6.432-13.856 12.128-4.128 6.112-5.664 13.632-4.032 22.976l0.096 0.48 0.16 0.48v0.032l1.984 6.496c1.184 3.936 2.784 9.184 4.416 14.464s3.232 10.592 4.448 14.656c0.736 2.432 1.28 4.256 1.6 5.344 0.192 0.64 0.32 1.056 0.352 1.184 0.928 4.928 3.168 9.408 7.392 12.32 4.16 2.88 8.928 3.264 12.928 2.912 7.424-0.672 16.192-4.416 23.552-7.552l0.416-0.192c8.224-3.52 15.328-6.528 21.088-7.488 2.784-0.448 4.48-0.288 5.472 0.064 0.704 0.224 1.376 0.64 2.048 1.952 2.176 4.096 5.024 7.36 8.64 9.632s7.552 3.136 11.296 3.264c7.104 0.256 14.656-2.272 20.992-4.512 1.088-0.384 2.144-0.768 3.2-1.152 5.632-2.016 10.816-3.872 15.968-4.864 5.92-1.152 10.72-0.928 14.848 1.088 4.992 2.432 7.488 5.12 9.056 7.616 1.344 2.112 2.080 4 3.008 6.464 0.352 0.96 0.768 2.016 1.248 3.2 1.568 3.808 4 8.8 9.632 12.064 5.376 3.136 12.256 3.936 20.928 3.296 0.704-0.064 1.312-0.096 1.888-0.096-0.256 0.512-0.544 1.056-0.896 1.696-0.16 0.32-0.352 0.672-0.544 1.024-1.92 3.552-4.8 8.864-5.632 14.080-0.512 3.168-0.384 6.976 1.536 10.656s5.152 6.336 8.992 8.096c9.632 4.448 14.176 8.544 17.44 12.992 1.728 2.368 3.232 5.024 4.928 8.32 0.544 1.056 1.12 2.208 1.76 3.456 1.216 2.432 2.592 5.184 4.096 8l0.32 0.576 0.416 0.512c3.040 3.936 4.672 8.736 4.672 13.696 0 4.864-1.568 9.6-4.512 13.472-1.952 2.144-3.712 2.784-6.688 3.264-0.64 0.096-1.408 0.192-2.336 0.32-3.296 0.416-8.192 1.024-12.992 2.816-1.344 0.512-1.792 0.448-2.048 0.416h-0.032c-0.32-0.032-0.448-0.064-0.672-0.096s-0.544-0.096-1.152-0.16c-0.992-0.128-2.304-0.256-3.872-0.16-6.112 0.352-13.152 3.904-25.568 13.088-3.52 2.592-7.168 5.248-10.88 7.936-9.184 6.656-18.784 13.6-27.616 20.864-12.512 10.304-24.288 21.92-32.576 35.744-8.672 14.432-9.056 26.56-4.416 35.968 3.104 6.304 8 10.432 12.096 12.928-2.368 1.184-4.672 2.848-6.72 5.088-5.92 6.528-7.712 12.64-8.096 19.232-0.128 2.24-0.096 4.704-0.096 6.976 0 0.64 0 1.248 0.032 1.856 0.032 2.944-0.032 6.112-0.384 9.696-0.32 3.168-0.288 6.304-0.096 9.28-1.856-2.816-3.936-5.728-6.080-8.192-2.752-3.168-7.040-7.392-12.768-8.288-2.496-0.384-5.28-0.256-7.968 0.992s-4.448 3.328-5.536 5.216c-1.792 3.136-2.432 7.072-2.816 9.44l-0.064 0.384c-0.48 3.008-0.832 5.152-1.504 6.944-0.608 1.6-1.184 2.144-1.696 2.432l-0.352 0.192-0.352 0.256c-10.144 7.232-21.6 12.352-33.76 15.072-3.296 0.096-7.904 0.64-12.768 1.312-5.024 0.672-10.848 1.568-16.704 2.464l-1.728 0.256c-13.088 2.016-25.312 3.808-31.040 3.872-0.064-0.064-0.128-0.16-0.192-0.288-0.864-1.376-1.536-3.456-2.72-7.072l-0.032-0.16c-0.928-2.912-2.368-7.328-5.024-10.784-1.472-1.92-3.488-3.808-6.24-5.024-2.784-1.216-5.792-1.504-8.8-1.12l-0.576 0.096-0.576 0.16c-23.84 6.88-48.8 9.088-73.472 6.496-7.712-2.464-22.176-8.352-35.296-14.496-6.752-3.168-12.96-6.272-17.568-8.96-2.336-1.344-4.096-2.464-5.312-3.36-0.384-0.288-0.64-0.48-0.832-0.64l-0.384-0.8-1.312-1.12c-11.072-9.376-25.088-14.464-39.584-14.464 0-0.032 0-0.032 0-0.064-0.192-0.736-0.32-1.632-0.48-2.848-0.032-0.224-0.064-0.48-0.096-0.768-0.256-2.080-0.672-5.376-1.792-8.16-0.704-1.76-1.856-3.872-3.872-5.6-2.080-1.824-4.64-2.848-7.36-3.136-5.728-0.608-10.112 2.24-12.864 4.608-2.464 2.112-4.768 4.864-6.496 6.944-0.192 0.224-0.352 0.448-0.544 0.64-1.056 1.28-1.92 2.24-2.624 3.008-0.448-2.528-0.608-5.632-0.8-9.312 0-0.32-0.032-0.64-0.064-0.992v-0.096c-0.192-3.68-0.448-8.704-1.76-12.512-0.672-1.952-2.080-5.024-5.248-6.976-3.648-2.24-7.52-1.792-10.368-0.672-3.2 1.248-5.504 3.52-7.136 5.568-1.664 2.112-3.040 4.544-4.256 6.944-1.856 3.744-3.648 8.32-5.376 12.64-0.416 1.088-0.832 2.144-1.248 3.168-2.176 5.472-4.32 10.432-6.752 14.304-2.496 4-4.576 5.76-6.112 6.336-2.656 1.024-4.544 0.992-5.952 0.608-1.536-0.384-3.232-1.312-5.184-3.168-4.192-3.936-7.936-10.368-12.256-18.272-2.464-4.48-1.728-8.128 0.096-13.792 0.096-0.32 0.224-0.64 0.32-1.024 0.832-2.496 1.92-5.792 2.304-9.056 0.512-4.192-0.032-8.896-3.104-13.472-4.96-7.36-11.584-10.624-18.784-11.072-6.4-0.416-12.96 1.44-18.144 2.976-5.632 1.664-8.768 5.76-10.528 9.28-0.352 0.672-0.64 1.344-0.928 2.048-6.592-11.712-11.552-24.256-14.784-37.344l-0.128-0.512c-0.896-2.816-0.8-4.736-0.448-6.912 0.064-0.32 0.128-0.704 0.192-1.152 0.416-2.272 1.056-5.984 0.576-9.92-0.384-3.168-1.664-6.080-3.808-8.352-2.080-2.24-4.64-3.552-7.072-4.224-4.672-1.312-9.664-0.608-13.536 0.928-3.040 1.216-5.376 3.264-6.784 6.144-0.928 1.92-1.28 4.096-1.408 4.928-0.032 0.096-0.032 0.192-0.032 0.224-0.192 0.992-0.288 1.376-0.48 1.696-0.128 0.288-0.48 0.864-1.536 1.728-1.696 1.408-2.784 2.368-3.552 3.040-1.248 1.088-1.696 1.472-2.656 2.016-1.568 0.864-4.192 1.856-12.48 4.512-4.352 1.408-8.288 3.008-11.84 4.448-0.32 0.128-0.608 0.256-0.896 0.384-3.232 1.344-6.016 2.496-8.8 3.424-5.792 1.952-10.848 2.688-16.928 1.184-2.816-0.704-3.84-1.568-4.288-2.080-0.608-0.672-1.12-1.632-1.92-3.84-0.16-0.416-0.288-0.864-0.448-1.312-1.536-4.48-3.968-11.744-12.224-17.184-8.192-5.408-15.552-6.24-21.088-6.592-1.888-0.128-3.296-0.224-4.416-0.32 0.704-0.992 2.016-3.008 2.24-5.728 0.288-3.392-1.184-6.272-3.296-8.224-1.76-1.632-3.904-2.56-5.696-3.136l-0.288-0.096-0.288-0.064c-15.52-3.968-31.776-3.968-47.296 0l-0.192 0.032-0.192 0.064c-2.272 0.704-4.64 1.824-6.56 3.712-2.080 2.080-3.2 4.64-3.456 7.264-0.192 2.016 0.16 3.968 0.672 5.632-1.728-0.64-3.712-1.312-6.016-2.048-9.248-2.944-19.552-7.36-30.336-12-10.592-4.544-21.664-9.28-31.808-12.48-4.864-1.536-8.256-2.464-10.688-2.848-1.152-0.192-2.72-0.352-4.352-0.128-1.6 0.224-3.68 0.96-5.376 2.72-3.392 0.32-5.792 1.248-6.592 1.536-0.352-0.096-1.056-0.352-2.24-0.896-2.016-0.96-2.944-2.112-5.312-5.088-0.128-0.16-0.256-0.32-0.384-0.48-2.688-3.36-6.432-7.648-13.696-10.368-7.808-2.912-13.952-0.928-17.6 0.256-0.096 0.032-0.224 0.064-0.32 0.096-1.92 0.608-2.528 0.768-2.944 0.768 0 0 0 0 0 0s-0.128 0.064-0.576-0.256c-0.96-0.64-1.952-1.28-2.88-1.856-0.096-0.064-0.224-0.128-0.32-0.192-1.056-0.672-1.984-1.248-2.848-1.856-1.312-0.896-2.144-1.568-2.688-2.112 0.352-0.416 0.864-0.96 1.728-1.696 1.632-1.408 3.552-2.24 6.368-2.848 2.112-0.448 4.192-0.704 6.816-1.024 1.408-0.16 2.944-0.352 4.736-0.608 9.856-1.344 22.112-4.128 36.896-14.944 7.36-5.408 11.584-10.176 14.272-15.232 1.28-2.432 2.112-4.736 2.752-6.688 0.224-0.672 0.416-1.28 0.576-1.856 0.384-1.216 0.704-2.208 1.152-3.392 2.080-5.472 6.688-14.016 32.8-31.136s62.272-34.4 94.144-48.992c6.944-3.168 13.728-6.24 20.128-9.12 8.16-3.68 15.712-7.104 22.24-10.112 11.392-5.28 20.96-9.952 25.536-13.376 5.696-4.256 8.192-9.536 8.384-15.264 0.128-3.808-0.832-7.904-1.504-10.688-0.128-0.576-0.256-1.056-0.352-1.504-0.704-3.296-0.864-5.312-0.352-7.072 0.448-1.536 1.728-4.032 6.304-7.232 6.112-4.288 19.488-13.408 36.256-24.832 44.384-30.272 112.512-76.768 132.512-92.16 7.424-5.696 12.384-11.040 15.968-16.288s5.504-10.080 7.072-14.272c0.192-0.544 0.384-1.056 0.576-1.568 1.312-3.552 2.336-6.336 4.032-9.28 1.824-3.168 4.512-6.656 9.312-10.656 4.96-4.128 6.944-4.096 7.264-4.096 0.384 0.032 1.344 0.224 4.256 2.912 0.64 0.576 1.312 1.248 2.080 1.984 5.472 5.28 14.080 13.664 29.28 15.584 14.048 1.792 26.528 3.392 37.536 3.712 11.072 0.32 21.248-0.576 30.688-4.192 5.216-1.984 10.144-5.568 11.136-11.84 0.832-5.216-1.664-9.76-3.008-12.064-0.608-1.024-1.28-2.112-1.856-2.976-0.16-0.256-0.32-0.48-0.448-0.704s-0.256-0.416-0.384-0.608c0.032 0 0.032-0.032 0.064-0.032 0.32-0.16 0.704-0.352 1.152-0.544 1.472-0.704 3.616-1.696 5.632-2.912 6.016-3.584 12.224-9.408 18.176-21.216 5.888-11.68 8.672-23.968 10.752-34.656 0.384-1.92 0.736-3.776 1.056-5.568 0.192-0.96 0.352-1.888 0.512-2.784 0.48 4.288 2.528 8.384 6.56 11.424 3.296 3.328 7.2 5.984 11.488 7.808 4.544 1.952 9.44 2.976 14.4 2.976s9.824-1.024 14.368-2.976c4.384-1.888 8.384-4.608 11.744-8.032 5.632-4.768 10.72-11.424 15.072-18.304 4.512-7.104 8.608-14.944 12-22.112s6.176-13.856 8.096-18.72c0.928-2.4 1.696-4.352 2.208-5.728zM77.952 614.464c0 0-0.096 0-0.224 0.032 0.16 0 0.224 0 0.224-0.032zM72.672 619.584c-0.032 0.192-0.032 0.224-0.032 0.128v-0.032c0-0.032 0-0.064 0-0.096zM224.288 646.112c0 0 0 0 0 0v0zM907.584 733.984c0 0 0 0 0 0 0.032 0.032 0.064 0.032 0.064 0.032l-0.064-0.032zM972.32 492.576c0 0 0 0.032 0 0.032v-0.032zM808.704 234.72c0 0 0 0 0 0v0zM760.576 85.632c0.032 0 0 0-0.032 0h0.032zM820.704 261.76c0 0-0.032 0.064-0.032 0.192 0.032-0.128 0.032-0.192 0.032-0.192z" />
<glyph unicode="&#xe922;" glyph-name="Clear_Filter" d="M640.672 476.544l320.64 320.64c13.6 13.6 22.016 32.384 22.016 53.12 0 41.504-33.632 75.136-75.136 75.136-20.736 0-39.552-8.416-53.12-22.016l-320.64-320.864-320.64 320.64c-13.6 13.6-32.384 22.016-53.12 22.016-41.504 0-75.136-33.632-75.136-75.136 0-20.736 8.416-39.552 22.016-53.12v0l320.864-320.384-320.96-320.64c-13.6-13.6-22.016-32.384-22.016-53.12 0-41.504 33.632-75.136 75.136-75.136 20.736 0 39.552 8.416 53.12 22.016l320.64 320.64 320.64-320.64c13.6-13.6 32.384-22.016 53.12-22.016 41.504 0 75.136 33.632 75.136 75.136 0 20.736-8.416 39.52-22.016 53.12v0z" />
<glyph unicode="&#xe923;" glyph-name="Close" d="M605.824 447.168l398.72 398.752c25.952 25.952 25.952 67.872 0 93.824s-67.872 25.92-93.792 0l-398.752-398.752-398.72 398.752c-25.952 25.92-67.872 25.92-93.824 0s-25.952-67.872 0-93.824l398.72-398.752-398.72-398.752c-25.952-25.952-25.952-67.872 0-93.792 12.928-12.928 29.92-19.424 46.912-19.424s33.952 6.496 46.912 19.424l398.72 398.752 398.752-398.752c12.928-12.928 29.92-19.424 46.912-19.424s33.952 6.496 46.912 19.424c25.952 25.952 25.952 67.872 0 93.792z" />
<glyph unicode="&#xe924;" glyph-name="Close_Chips" d="M874.208 810.208c-199.776 199.744-524.672 199.744-724.448 0-199.68-199.744-199.68-524.704 0-724.448 99.872-99.84 231.072-149.76 362.24-149.76s262.304 49.888 362.208 149.76c199.744 199.744 199.744 524.704 0 724.448zM723.264 297.056c16.704-16.704 16.704-43.68 0-60.352-8.32-8.32-19.264-12.512-30.176-12.512s-21.856 4.192-30.176 12.512l-150.912 150.944-150.848-150.912c-8.352-8.32-19.296-12.512-30.176-12.512-10.912 0-21.856 4.192-30.176 12.512-16.704 16.704-16.704 43.712 0 60.352l150.848 150.912-150.912 150.912c-16.704 16.704-16.704 43.712 0 60.352 16.64 16.704 43.68 16.704 60.352 0l150.912-150.912 150.912 150.912c16.704 16.704 43.68 16.704 60.352 0 16.704-16.64 16.704-43.68 0-60.352l-150.912-150.912 150.912-150.944z" />
<glyph unicode="&#xe925;" glyph-name="Confirm_Circle" d="M774.4 603.264l-43.328 44.8c-1.696 1.824-4.128 2.944-6.816 2.944-0.032 0-0.064 0-0.096 0v0c-0.096 0-0.16 0-0.256 0-2.624 0-4.992-1.12-6.624-2.944v0l-300.288-302.528-109.312 109.312c-1.728 1.824-4.192 2.944-6.88 2.944s-5.152-1.12-6.88-2.944l-43.84-43.84c-1.824-1.792-2.944-4.256-2.944-7.008s1.12-5.216 2.944-7.008l137.856-137.856c7.264-7.904 17.344-13.12 28.64-14.016h0.16c11.264 1.056 21.184 6.048 28.544 13.568v0l329.088 330.816c1.6 1.824 2.592 4.256 2.592 6.912 0 2.624-0.96 5.024-2.56 6.848v0zM512 891.072c244.416-0.256 442.464-198.432 442.464-442.88 0-244.608-198.272-442.88-442.88-442.88s-442.88 198.272-442.88 442.88c0 122.304 49.568 233.024 129.696 313.152v0c79.712 80.128 190.080 129.728 312.032 129.728 0.544 0 1.088 0 1.664 0h-0.096zM512 960c-282.784 0-512-229.216-512-512s229.216-512 512-512c282.784 0 512 229.216 512 512v0c0 282.784-229.216 512-512 512v0z" />
<glyph unicode="&#xe926;" glyph-name="Confirmed" d="M930.912 448c0 218.496-177.12 395.648-395.648 395.648s-395.648-177.12-395.648-395.648c0-218.496 177.12-395.648 395.648-395.648s395.648 177.12 395.648 395.648zM454.4 262.496l-111.008 121.984c-17.376 23.52 11.52 50.464 29.92 27.264l99.424-109.12 224.032 331.936c8.032 13.856 21.088 11.84 28.48 5.728 8.128-6.72 10.464-21.216 1.408-32.128l-238.048-347.488c-12.96-16.832-24.832-9.152-34.208 1.824z" />
<glyph unicode="&#xe927;" glyph-name="Contact_Info" d="M512 960c-282.77 0-512-229.23-512-512s229.23-512 512-512c282.77 0 512 229.23 512 512s-229.23 512-512 512zM512 910.299c255.321 0 462.299-206.978 462.299-462.299s-206.978-462.299-462.299-462.299c-255.321 0-462.299 206.978-462.299 462.299s206.978 462.299 462.299 462.299zM319.841 376.408v0.002c-20.254 0-36.733-16.479-36.734-36.733v-83.835c0-20.255 16.479-36.734 36.734-36.734 232.172 0 421.053 188.881 421.053 421.052 0 20.255-16.479 36.734-36.734 36.734h-84.070c-20.255 0-36.734-16.479-36.733-36.735 0-28.040-4.396-55.545-13.052-81.761-4.209-13.412-0.695-27.706 9.103-37.49l37.713-50.133c-31.431-59.246-68.201-96.005-127.895-127.87l-51.473 38.857c-7.798 8.010-23.507 12.009-36.286 7.65-26.078-8.618-53.599-13.002-81.626-13.002z" />
<glyph unicode="&#xe928;" glyph-name="Contacts" d="M183.968 956.16h572.32c66.848 0 121.024-54.144 121.088-120.992v-52.288h56.928c0.32 0 0.736 0.032 1.12 0.032 13.376 0 24.224-10.848 24.224-24.224s-10.848-24.224-24.224-24.224c-0.384 0-0.768 0-1.184 0.032h-56.576v-158.72h56.672c0.32 0.032 0.736 0.032 1.12 0.032 13.376 0 24.224-10.848 24.224-24.224s-10.848-24.224-24.224-24.224c-0.384 0-0.768 0-1.184 0.032h-56.608v-158.72h56.672c0.32 0 0.736 0.032 1.12 0.032 13.376 0 24.224-10.848 24.224-24.224s-10.848-24.224-24.224-24.224c-0.384 0-0.768 0-1.184 0.032h-56.608v-158.72h56.672c0.32 0 0.736 0.032 1.12 0.032 13.376 0 24.224-10.848 24.224-24.224s-10.848-24.224-24.224-24.224c-0.384 0-0.768 0-1.184 0.032h-56.608v-52.288c-0.064-66.816-54.24-120.992-121.088-120.992 0 0 0 0 0 0h-572.352c-66.848 0-121.024 54.144-121.088 120.992v774.24c0 0.032 0 0.064 0 0.096 0 66.752 54.080 120.864 120.832 120.896v0zM111.296 60.832c0.16-40.064 32.608-72.48 72.64-72.608h572.32c40.064 0.128 72.512 32.544 72.64 72.576v52.288h-56.64c-0.32 0-0.736-0.032-1.12-0.032-13.376 0-24.224 10.848-24.224 24.224s10.848 24.224 24.224 24.224c0.384 0 0.768 0 1.184-0.032h56.608v158.72h-56.672c-0.32 0-0.736-0.032-1.12-0.032-13.376 0-24.224 10.848-24.224 24.224s10.848 24.224 24.224 24.224c0.384 0 0.768 0 1.184-0.032h56.608v158.72h-56.672c-0.32-0.032-0.736-0.032-1.12-0.032-13.376 0-24.224 10.848-24.224 24.224s10.848 24.224 24.224 24.224c0.384 0 0.768 0 1.184-0.032h56.608v158.72h-56.672c-0.32 0-0.736-0.032-1.12-0.032-13.376 0-24.224 10.848-24.224 24.224s10.848 24.224 24.224 24.224c0.384 0 0.768 0 1.184-0.032h56.608v52.384c-0.16 40.064-32.608 72.512-72.704 72.608h-572.32c-40.064-0.128-72.512-32.544-72.64-72.576v0zM464.288 456.352c77.856 0 140.96 63.104 140.96 140.96s-63.104 140.96-140.96 140.96c-77.856 0-140.96-63.104-140.96-140.96v0c0-77.856 63.104-140.96 140.96-140.96v0zM464.288 680.448c45.76 0 82.848-37.088 82.848-82.848s-37.088-82.848-82.848-82.848c-45.76 0-82.848 37.088-82.848 82.848v0c0.032 45.728 37.12 82.784 82.848 82.784 0 0 0 0 0 0v0zM464.288 680.448M464.288 409.856c-119.328-0.8-215.744-97.696-215.744-217.12 0-2.144 0.032-4.288 0.096-6.4v0.32c0.032-16.064 13.024-29.056 29.088-29.088h373.184c16.064 0.032 29.056 13.024 29.088 29.088v0c0.064 1.824 0.096 3.968 0.096 6.112 0 119.456-96.448 216.384-215.712 217.12h-0.064zM309.088 215.712c10.528 77.184 76 136 155.2 136s144.704-58.848 155.136-135.2l0.096-0.8zM309.088 215.712" />
<glyph unicode="&#xe929;" glyph-name="Contract" d="M878.624 736.8l-210.56 210.56c-3.808 3.872-9.088 6.272-14.912 6.336h-442.464c-46.496-0.064-84.192-37.76-84.256-84.256v-842.848c0.064-46.496 37.76-84.192 84.256-84.256h589.952c46.528 0.032 84.256 37.728 84.32 84.256v695.328c-0.032 5.856-2.432 11.136-6.304 14.912v0zM674.272 881.76l139.072-139.072h-96.96c-23.296 0-42.176 18.88-42.176 42.176v0zM842.848 26.592c0-23.296-18.88-42.176-42.176-42.176v0h-590.016c-23.296 0-42.176 18.88-42.176 42.176v0 842.848c0 23.296 18.88 42.176 42.176 42.176v0h421.408v-126.432c0.032-46.528 37.728-84.256 84.256-84.32h126.432zM737.472 363.744h-295.008c-11.648 0-21.088-9.44-21.088-21.088s9.44-21.088 21.088-21.088v0h295.008c11.648 0 21.088 9.44 21.088 21.088s-9.44 21.088-21.088 21.088v0zM273.888 700.832h252.832c11.648 0 21.088 9.44 21.088 21.088s-9.44 21.088-21.088 21.088v0h-252.832c-11.648 0-21.088-9.44-21.088-21.088s9.44-21.088 21.088-21.088v0zM737.472 490.176h-463.52c-11.648 0-21.088-9.44-21.088-21.088s9.44-21.088 21.088-21.088v0h463.52c11.648 0 21.088 9.44 21.088 21.088s-9.44 21.088-21.088 21.088v0zM252.832 595.456c0-11.616 9.408-21.056 21.056-21.056v0h463.52c11.648 0 21.088 9.44 21.088 21.088s-9.44 21.088-21.088 21.088v0h-463.52c0 0 0 0 0 0-11.616 0-21.056-9.408-21.056-21.056 0-0.032 0-0.032 0-0.064v0zM554.112 189.088c-26.272-26.304-54.144-50.976-83.52-73.792l-1.984-1.504c-3.264 7.84-6.784 18.016-9.76 28.416l-0.544 2.176c-8.544 28.384-15.296 50.56-36.864 50.56-18.464 0-26.816-16.864-39.392-42.464-7.072-16.032-14.976-29.76-24.128-42.56l0.48 0.704c-8.352 2.88-15.392 7.648-20.96 13.792l-0.032 0.032c21.952 24.704 36.96 56.032 41.728 90.624l0.096 0.896c0 0.288 0 0.672 0 1.024 0 34.336-27.84 62.208-62.208 62.208-0.352 0-0.704 0-1.088 0h0.064c-36.608-9.312-63.264-42.016-63.264-80.928 0-1.184 0.032-2.336 0.064-3.52v0.16c2.592-27.072 12.928-51.328 28.768-70.976l-0.192 0.256c-6.176-6.24-12.736-12.064-19.648-17.44l-0.448-0.32c-5.152-3.872-8.416-9.984-8.416-16.832 0-11.616 9.44-21.056 21.056-21.056 4.768 0 9.152 1.568 12.704 4.256l-0.064-0.032c8.448 6.464 15.936 13.024 22.944 20.096v0c12.576-13.024 29.408-21.888 48.256-24.288l0.416-0.032c28.512 0 45.376 32.416 60.128 62.208 9.728-32.16 18.976-62.208 45.248-62.208 7.008 0 28.384 0 120.096 90.336 3.872 3.808 6.304 9.12 6.304 15.008 0 11.616-9.44 21.056-21.056 21.056-5.76 0-10.976-2.304-14.752-6.048v0zM309.6 157.472c-7.84 10.4-13.12 23.136-14.624 37.024l-0.032 0.352c0.16 17.216 8.352 32.512 20.992 42.336l0.128 0.096c0.384 0.032 0.8 0.032 1.248 0.032 10.976 0 19.84-8.896 19.84-19.84 0-0.448 0-0.864-0.032-1.312v0.064c-4.224-22.56-13.856-42.368-27.52-58.656l0.16 0.192z" />
<glyph unicode="&#xe92a;" glyph-name="Copy" d="M446.4-32h334.4c77.248 0.096 139.872 62.72 139.968 139.968v474.432c-0.192 77.216-62.752 139.744-139.968 139.84h-334.4c-77.248-0.064-139.84-62.624-140.032-139.808v-474.272c0-77.376 62.688-140.096 140.032-140.16v0zM780.8 652.288c38.464-0.32 69.536-31.424 69.824-69.856v-474.272c-0.128-38.56-31.264-69.824-69.792-70.144h-334.432c-38.592 0.224-69.792 31.424-70.016 69.984v474.4c0.288 38.528 31.488 69.664 69.984 69.888h0.032zM102.4 259.52v528.512c0.096 77.248 62.72 139.872 139.968 139.968h388.48c19.328 0 35.008-15.68 35.008-35.008s-15.68-35.008-35.008-35.008v0h-388.48c-38.528-0.256-69.696-31.424-69.952-69.92v-528.48c0-19.328-15.68-35.008-35.008-35.008v0c0 0 0 0 0 0-19.296 0-34.976 15.648-35.008 34.944v0z" />
<glyph unicode="&#xe92b;" glyph-name="Country" d="M48.096 656.992c17.024-39.648 78.176-63.936 45.44-94.816-36.224-50.176-28.224-83.52 54.368-140.512 48.704-36.192 40.352-62.72 50.208-105.856 8.128-26.112 20.768-40.864 40.832-37.12 104.48 19.456 82.336-72.32 184.704-147.648 95.68-77.344 178.432-22.784 214.496-32.928 63.136-20.288 29.088-73.536 114.048-81.504 41.632-4.064 88.64-2.912 125.536-8.864 45.568-11.776 17.312 45.088 46.272 59.456 28.768 14.752 49.152 80.96 36.48 103.328-20.48 37.696-134.336 63.744-55.712 142.208 12.064 9.824 16.064 37.632-1.536 40.832-65.44 14.24-34.912 74.016-46.336 103.904-16.672 42.304 31.584 114.016 29.6 158.24 4.832 24.864-4.544 37.728-21.984 46.56-14.688 7.456-34.88 11.296-59.584 25.216-42.592 34.816-89.728 59.84-147.296 62.208-131.84-4.16-126.688-79.424-243.392-83.584-91.328 0.288-157.312 50.816-178.432 93.888-18.048 36.8-11.68 73.792-35.392 80.032-15.84-0.32-42.976-28.224-64.896-37.568-34.528-14.752-61.056-5.216-83.616 27.264-12.384 16.128-23.648 9.952-34.848 1.536-24.992-15.072-10.048-45.504-3.168-74.912 8.64-37.056 15.424-68.672 34.176-99.328zM60.704 650.24c-18.208 29.792-28.224 61.6-36.608 97.6-6.656 28.544-29.152 60.384-4.864 75.008 10.848 8.192 20.672 14.176 32.704-1.472 21.92-31.552 48.8-43.072 82.336-28.768 21.248 9.088 47.648 36.192 63.008 36.48 23.008-6.048 16.832-41.984 34.368-77.696 20.512-41.792 95.968-96.576 184.64-96.832 113.312 4.032 108.32 77.12 236.352 81.152 55.936-2.304 101.696-22.048 143.040-55.872 24-13.536 43.584-17.248 57.856-24.512 16.928-8.576 26.016-21.056 21.344-45.216 1.92-42.944-44.928-112.576-28.736-153.664 11.072-29.024-18.592-91.616 44.992-105.44 17.056-3.072 13.184-30.112 1.472-39.648-76.32-76.192 39.744-110.112 58.656-141.504 12.288-21.728-4.096-79.2-32.032-93.504-28.096-13.952-8.64-71.456-52.896-60-35.808 5.792-75.776 4.672-116.192 8.608-82.496 7.744-39.008 62.848-116.416 82.56-35.008 9.856-115.36-43.136-208.288 31.968-99.392 73.152-77.888 165.696-179.36 146.784-19.456-3.648-31.776 7.264-39.648 32.64-9.6 41.888-0.32 68.768-47.616 103.936-80.224 55.328-91.392 89.984-56.192 138.72 31.776 30.016-21.856 54.016-41.824 88.672z" />
<glyph unicode="&#xe92c;" glyph-name="Credit_Cards" d="M111.168 779.392h786.112c57.088-0.096 103.328-46.336 103.424-103.424v-455.136c-0.096-57.088-46.336-103.328-103.424-103.424h-786.144c-57.088 0.096-103.328 46.336-103.424 103.424v455.136c0.096 57.088 46.336 103.328 103.424 103.424v0zM49.12 220.864c0-34.272 27.776-62.048 62.048-62.048v0h786.112c34.272 0 62.048 27.776 62.048 62.048v0 455.136c0 34.272-27.776 62.048-62.048 62.048v0h-786.112c-34.272 0-62.048-27.776-62.048-62.048v0-455.136zM690.432 365.664h165.472c0.224 0 0.512 0 0.8 0 11.424 0 20.704-9.28 20.704-20.704s-9.28-20.704-20.704-20.704c-0.288 0-0.576 0-0.832 0.032h-165.44c-0.224 0-0.512 0-0.8 0-11.424 0-20.704 9.28-20.704 20.704s9.28 20.704 20.704 20.704c0.288 0 0.576 0 0.832-0.032h-0.032zM566.304 282.912h289.6c0.224 0 0.512 0 0.8 0 11.424 0 20.704-9.28 20.704-20.704s-9.28-20.704-20.704-20.704c-0.288 0-0.576 0-0.832 0.032h-289.568c-0.224 0-0.512 0-0.8 0-11.424 0-20.704 9.28-20.704 20.704s9.28 20.704 20.704 20.704c0.288 0 0.576 0 0.832-0.032h-0.032z" />
<glyph unicode="&#xe92d;" glyph-name="Critics_Suggestions" d="M120.896 906.528h725.344c66.752 0 120.896-54.144 120.896-120.896v-725.344c0-66.752-54.144-120.864-120.896-120.864h-725.344c-66.752 0-120.864 54.144-120.864 120.896v725.312c0 66.752 54.144 120.896 120.896 120.896zM614.784 129.376l32.384 226.496c-27.776-7.104-62.656-2.112-94.688-3.872l-31.168-218.016c-1.472-8.896 4.8-18.208 16-18.496h61.44c8.544 0.608 14.784 5.696 16 13.92zM497.952 304.832c-26.592 0.576-39.936 21.632-41.536 46.624l48.352 0.672-6.816-47.296zM751.616 541.216h24.096c12.32 0 22.4-10.080 22.4-22.4v-2.496c0-12.32-10.080-22.4-22.4-22.4h-24.096v47.296zM215.488 450.656c-57.376 19.008-69.248 105.536-0.032 133.792l0.032-133.792zM262.912 708.64l47.296-30.080v-321.984l-47.296-31.36v383.424zM357.536 656.256c91.648-32.896 180.704-17.216 257.216-20.48 47.52-3.072 76.576-26.688 88.608-69.312v-89.792c-7.52-45.28-36.736-71.328-88.512-77.408-109.152-0.288-183.968 7.328-257.312-20.48v277.472zM252.256 773.76c-13.664 9.728-36.768 1.44-36.8-19.68v-120.64c-121.952-27.104-129.344-198.816 0-231.744l0.032-120.672c-0.96-18.592 19.552-29.92 35.808-20.288 47.776 28.32 89.952 71.168 158.592 83.36 5.856-50.144 32.736-79.456 81.344-86.336l-16.704-117.024c-5.376-39.808 22.080-68.032 53.824-71.904l54.816-0.64c45.024-1.376 66.080 15.008 76.736 46.336l38.592 266.048c21.632 17.024 38.208 38.112 46.464 65.92h30.24c98.016 4.992 90.048 141.664 0 142.048h-30.24c-20.512 58.336-66.496 91.488-121.024 94.272-44.704 0.672-80.864 0.512-111.872 0.32-53.184-0.32-92.192 1.024-140.256 18.848-33.824 12.544-69.184 37.696-119.584 71.808zM586.944 524.352h-58.272v58.272c0.032 0.128 0.032 0.256 0.032 0.384 0 3.008-2.432 5.408-5.408 5.408s-5.408-2.432-5.408-5.408c0-0.128 0-0.288 0-0.384v-58.272h-58.272c-0.096 0-0.256 0-0.384 0-3.008 0-5.408-2.432-5.408-5.408s2.432-5.408 5.408-5.408c0.128 0 0.288 0 0.384 0l58.272 0.032v-58.272c0-0.128 0-0.288 0-0.416 0-3.008 2.432-5.408 5.408-5.408s5.408 2.432 5.408 5.408c0 0.128 0 0.288 0 0.384l-0.032 58.304h58.272c0.16-0.032 0.288-0.032 0.416-0.032 2.976 0 5.408 2.432 5.408 5.408s-2.432 5.408-5.408 5.408c-0.128 0-0.288 0-0.384 0h-0.032z" />
<glyph unicode="&#xe92e;" glyph-name="Critics_Suggestions_Number" d="M141.376 737.728v166.4c0.224 18.048 14.88 32.576 32.96 32.576 6.784 0 13.12-2.048 18.368-5.568l-0.128 0.064 107.84-71.040c57.824-33.792 127.296-53.76 201.44-53.76 0.032 0 0.064 0 0.128 0h195.712c0.128 0 0.256 0 0.384 0 83.68 0 154.752-53.92 180.384-128.896l0.384-1.344h42.24c0.736 0.032 1.632 0.032 2.496 0.032 53.984 0 97.728-43.744 97.728-97.728s-43.744-97.728-97.728-97.728c-0.864 0-1.76 0-2.624 0.032h-42.112c-12.448-37.152-34.944-68.16-64.256-90.752l-0.448-0.32-51.2-355.136c-6.752-42.752-43.36-75.072-87.488-75.072-0.096 0-0.192 0-0.288 0h-85.504c-0.128 0-0.256 0-0.384 0-48.448 0-87.744 39.296-87.744 87.744 0 4.256 0.288 8.416 0.896 12.512l-0.064-0.48 23.296 161.152c-55.84 4.064-100.896 45.504-110.432 99.232l-0.096 0.736-3.328 19.52c-41.952-8.576-79.2-23.616-112.672-44.192l1.504 0.864-107.84-71.040c-5.12-3.456-11.456-5.504-18.24-5.504-18.080 0-32.736 14.528-32.96 32.544v166.432c-75.552 14.976-131.712 80.704-131.712 159.552s56.16 144.576 130.656 159.392l1.024 0.16zM888.128 545.728h32.96c17.984 0 32.576 14.592 32.576 32.576s-14.592 32.576-32.576 32.576v0h-32.96zM589.696 24.896h85.504c0 0 0.032 0 0.064 0 11.264 0 20.608 8.288 22.272 19.072v0.128l44.8 311.872c-13.44-3.36-28.896-5.312-44.8-5.312h-86.72l-9.408-65.152-9.408-65.536-18.816-130.304-5.76-39.68c-0.096-0.832-0.16-1.792-0.16-2.752 0-12.352 10.016-22.336 22.336-22.336 0.032 0 0.064 0 0.096 0v0zM479.872 331.136c4.64-26.304 27.328-46.016 54.624-46.016 0.096 0 0.192 0 0.32 0v0l9.408 65.152c-45.824 0-51.2 0-67.456-0.896zM339.072 387.2c48.48 17.28 104.384 27.52 162.624 28.096h195.968c0.224 0 0.448 0 0.704 0 68.224 0 123.552 55.072 124.032 123.168v79.392c-0.48 68.128-55.808 123.2-124.032 123.2-0.256 0-0.512 0-0.736 0h-195.68c-58.496 0.608-114.432 10.912-166.496 29.344l3.616-1.12zM207.296 708.48v-395.072c62.464 41.152 58.816 38.848 65.92 43.136v443.328c-7.168 4.352-3.712 2.176-65.92 43.136zM141.376 486.080v184.256c-38.656-13.472-65.92-49.632-65.92-92.128s27.232-78.656 65.216-91.936l0.672-0.224z" />
<glyph unicode="&#xe92f;" glyph-name="Dakheli" d="M356.832 128.576l-28.896 144.64c-1.408 6.88-4.8 13.184-9.76 18.176-7.776 7.776-18.72 11.552-29.664 10.24l-57.792-7.232c-4.704-0.64-9.472 0.96-12.864 4.352-1.824 1.824-3.168 4.128-3.872 6.592l-2.144 7.456c-12.864 43.808-18.4 89.568-16.256 135.168-2.112 45.632 3.36 91.456 16.224 135.232l2.176 7.456c0.736 2.528 2.080 4.864 3.936 6.72 3.36 3.36 8.128 4.96 12.832 4.352l57.696-7.168c10.976-1.376 21.984 2.4 29.792 10.24 4.928 4.928 8.32 11.232 9.76 18.048l28.864 144.704c2.368 11.68-1.312 23.776-9.728 32.192-4.576 4.576-10.304 7.84-16.576 9.376l-58.112 14.496c-18.080 4.704-37.312 2.208-53.6-6.976-60.736-34.464-133.024-126.496-132.992-368.608 0-192.544 45.728-290.176 95.008-339.424 0.192-0.16 0.352-0.352 0.544-0.512 11.136-11.168 23.776-20.8 37.44-28.672 16.288-9.152 35.52-11.648 53.632-6.944l58.080 14.464c6.304 1.536 12.064 4.8 16.64 9.408 8.448 8.448 12.096 20.576 9.728 32.288zM325.536 106.592l-58.048-14.528c-13.024-3.424-26.88-1.664-38.656 4.928-56.032 31.872-122.784 118.656-122.816 351.072s66.784 319.168 122.816 351.040c11.808 6.592 25.696 8.32 38.72 4.896l58.048-14.528c2.688-0.672 5.152-2.080 7.136-4.064 3.648-3.648 5.248-8.896 4.224-13.952l-15.712-78.656-13.216-65.984c-0.608-2.976-2.080-5.728-4.224-7.904-3.36-3.36-8.128-5.024-12.864-4.448l-57.696 7.328c-10.912 1.472-21.888-2.24-29.664-10.016-4.288-4.288-7.392-9.6-9.024-15.456l-2.112-7.264c-13.504-45.632-19.264-93.408-17.056-140.928-2.208-47.488 3.552-95.264 17.024-140.896l2.112-7.264c1.664-5.824 4.768-11.136 9.056-15.424 7.776-7.776 18.752-11.488 29.664-10.048l57.696 7.168c4.736 0.576 9.472-1.088 12.864-4.448 2.176-2.144 3.648-4.928 4.224-7.904l28.896-144.64c1.024-5.056-0.544-10.336-4.224-13.984-1.984-1.984-4.448-3.392-7.168-4.064v0zM915.392 715.872c-8.32 8.352-18.464 14.72-29.6 18.592 12.224 8.384 19.552 22.304 19.552 37.12 0 24.864-20.16 45.024-45.024 45.024s-45.024-20.16-45.024-45.024c0-14.848 7.328-28.736 19.552-37.12-31.36-10.88-52.416-40.448-52.448-73.664h12.16c0 36.32 29.44 65.76 65.76 65.76s65.76-29.44 65.76-65.76h12.16c0 0.064 0 0.16 0 0.224 0 20.576-8.224 40.352-22.816 54.88v0zM860.288 738.688c-18.144 0-32.864 14.72-32.864 32.864s14.72 32.864 32.864 32.864c18.144 0 32.864-14.72 32.864-32.864s-14.752-32.864-32.896-32.864zM915.392 422.944c-8.32 8.352-18.464 14.752-29.6 18.592 12.224 8.384 19.552 22.304 19.552 37.12 0 24.864-20.16 45.056-45.024 45.056s-45.024-20.16-45.024-45.056c0-14.848 7.328-28.736 19.552-37.12-31.36-10.88-52.416-40.448-52.448-73.664h12.16c0 36.32 29.44 65.76 65.76 65.76s65.76-29.44 65.76-65.76h12.16c0 0.064 0 0.16 0 0.224 0 20.576-8.224 40.352-22.816 54.88zM860.288 445.792c-18.144 0-32.864 14.72-32.864 32.864s14.72 32.864 32.864 32.864c18.144 0 32.864-14.72 32.864-32.864s-14.752-32.864-32.896-32.864zM915.392 130.048c-8.32 8.352-18.464 14.752-29.6 18.592 12.224 8.384 19.552 22.304 19.552 37.12 0 24.864-20.16 45.024-45.024 45.024s-45.024-20.16-45.024-45.024c0-14.848 7.328-28.736 19.552-37.12-31.36-10.88-52.416-40.448-52.448-73.664h12.16c0 36.32 29.44 65.76 65.76 65.76s65.76-29.44 65.76-65.76h12.16c0 0.064 0 0.16 0 0.224 0 20.576-8.224 40.352-22.816 54.88zM860.288 152.896c-18.144 0-32.864 14.72-32.864 32.864s14.72 32.864 32.864 32.864c18.144 0 32.864-14.72 32.864-32.864s-14.752-32.864-32.896-32.864zM282.72 447.456h438.848l6.016-2.624-6.016-2.592h-438.848v5.216zM696.736 482.176l6.016 0.032 38.048-37.344-38.176-36.384h-5.856l38.016 36.384-38.048 37.312zM281.376 447.52l413.28 247.424 7.136 0.928-4.224-5.824-413.28-247.424-2.944 4.896zM651.744 713.664l5.664 3.424 56.896-13.696-15.456-55.776-5.536-3.296 15.296 55.712-56.864 13.696zM284.32 447.104l415.456-247.040 4.224-5.856-7.168 0.928-415.488 247.040 2.944 4.928zM695.84 246.88l5.696-3.36 15.008-56.768-56.64-12.96-5.568 3.296 56.48 13.056-15.008 56.736z" />
<glyph unicode="&#xe930;" glyph-name="Danger" d="M1002.72 192.096l-361.728 664.96c-58.112 97.856-199.808 97.984-257.984 0l-361.696-664.96c-59.424-99.968 12.512-226.592 128.96-226.592h723.456c116.352 0 188.416 126.496 128.992 226.592zM512 85.504c-33.088 0-60 26.912-60 60s26.912 60 60 60c33.088 0 60-26.912 60-60s-26.912-60-60-60zM572 325.504c0-33.088-26.912-60-60-60s-60 26.912-60 60v300c0 33.088 26.912 60 60 60s60-26.912 60-60v-300z" />
</font>
</defs>
</svg>
